<?xml version="1.0" standalone="no"?>
<!DOCTYPE svg PUBLIC "-//W3C//DTD SVG 1.1//EN" "http://www.w3.org/Graphics/SVG/1.1/DTD/svg11.dtd" >
<svg xmlns="http://www.w3.org/2000/svg">
<metadata>Generated by IcoMoon</metadata>
<defs>
<font id="mint" horiz-adv-x="1024">
<font-face units-per-em="1024" ascent="960" descent="-64" />
<missing-glyph horiz-adv-x="1024" />
<glyph unicode="&#x20;" d="" horiz-adv-x="512" />
<glyph unicode="&#xe600;" d="M512 864c-229.76 0-416-186.24-416-416s186.24-416 416-416 416 186.24 416 416-186.24 416-416 416zM512 96c-194.4 0-352 157.6-352 352s157.6 352 352 352 352-157.6 352-352-157.6-352-352-352zM474.496 553.312c-18.848-14.656-36.288-24.64-52.32-29.888v-55.744c30.496 10.048 56.992 25.568 79.488 46.56v-227.552h65.504v320h-53.952c-6.976-19.584-19.904-38.688-38.72-53.376z" />
<glyph unicode="&#xe601;" d="M512 864c-229.76 0-416-186.24-416-416s186.24-416 416-416 416 186.24 416 416-186.24 416-416 416zM512 96c-194.4 0-352 157.6-352 352s157.6 352 352 352 352-157.6 352-352-157.6-352-352-352zM562.048 391.136c19.424 17.792 32.864 31.424 40.32 40.896 11.232 14.304 19.424 28 24.64 41.024 5.152 13.056 7.744 26.816 7.744 41.248 0 25.376-9.056 46.624-27.136 63.68s-42.944 25.6-74.592 25.6c-28.864 0-52.928-7.36-72.192-22.080s-30.72-38.976-34.336-72.8l61.248-6.112c1.152 17.92 5.536 30.72 13.12 38.432 7.552 7.712 17.76 11.552 30.592 11.552 12.96 0 23.136-3.68 30.464-11.040 7.36-7.36 11.072-17.92 11.072-31.616 0-12.384-4.256-24.928-12.672-37.632-6.24-9.184-23.264-26.688-50.944-52.48-34.432-31.936-57.472-57.568-69.12-76.896-11.68-19.328-18.688-39.744-20.992-61.344h215.488v56.992h-122.208c3.232 5.536 7.392 11.232 12.608 17.088 5.12 5.856 17.44 17.664 36.896 35.488z" />
<glyph unicode="&#xe602;" d="M512 864c-229.76 0-416-186.24-416-416s186.24-416 416-416 416 186.24 416 416-186.24 416-416 416zM512 96c-194.4 0-352 157.6-352 352s157.6 352 352 352 352-157.6 352-352-157.6-352-352-352zM551.936 472.992c30.816 16.8 46.176 39.296 46.176 67.456 0 19.872-7.488 37.664-22.56 53.44-18.272 19.264-42.56 28.896-72.8 28.896-17.696 0-33.664-3.328-47.904-9.952s-25.344-15.776-33.344-27.36c-7.936-11.584-13.92-27.104-17.888-46.528l56.736-9.664c1.632 14.048 6.176 24.704 13.632 32.032 7.488 7.328 16.512 10.976 27.040 10.976 10.688 0 19.296-3.232 25.728-9.632 6.432-6.432 9.664-15.072 9.664-25.888 0-12.736-4.416-22.912-13.216-30.624-8.736-7.68-21.536-11.296-38.24-10.848l-6.816-50.080c11.008 3.072 20.416 4.608 28.32 4.608 11.968 0 22.112-4.512 30.464-13.536s12.512-21.28 12.512-36.704c0-16.288-4.352-29.248-13.024-38.848-8.704-9.6-19.424-14.4-32.128-14.4-11.84 0-21.952 4-30.24 12-8.352 8-13.44 19.584-15.328 34.752l-59.488-7.232c3.072-26.976 14.144-48.8 33.28-65.504s43.2-25.024 72.256-25.024c30.624 0 56.256 9.888 76.832 29.728 20.608 19.808 30.88 43.776 30.88 71.904 0 19.36-5.504 35.904-16.48 49.6-11.072 13.664-25.728 22.496-44.064 26.432z" />
<glyph unicode="&#xe603;" d="M512 864c-229.76 0-416-186.24-416-416s186.24-416 416-416 416 186.24 416 416-186.24 416-416 416zM512 96c-194.4 0-352 157.6-352 352s157.6 352 352 352 352-157.6 352-352-157.6-352-352-352zM581.632 597.216h-51.616l-139.328-203.968v-53.568h131.488v-64.48h59.456v64.512h39.776v53.76h-39.776v203.744zM522.144 393.44h-73.888l73.888 109.888v-109.888z" />
<glyph unicode="&#xe604;" d="M512 864c-229.76 0-416-186.24-416-416s186.24-416 416-416 416 186.24 416 416-186.24 416-416 416zM512 96c-194.4 0-352 157.6-352 352s157.6 352 352 352 352-157.6 352-352-157.6-352-352-352zM520.288 515.552c-14.304 0-28.352-3.424-42.016-10.272l9.76 54.528h115.904v57.504h-162.496l-31.52-167.008 49.824-7.264c14.016 15.68 29.824 23.488 47.488 23.488 14.144 0 25.632-4.928 34.464-14.784s13.248-24.64 13.248-44.352c0-21.024-4.48-36.736-13.344-47.2-8.896-10.464-19.776-15.648-32.64-15.648-11.232 0-21.152 4.032-29.76 12.128-8.64 8.064-13.792 19.040-15.552 32.864l-61.216-6.336c3.648-26.848 14.784-48.192 33.472-64.096 18.688-15.872 42.816-23.808 72.448-23.808 37.056 0 65.984 14.112 86.88 42.464 15.328 20.704 22.944 44.288 22.944 70.72 0 31.648-9.472 57.408-28.448 77.28-19.040 19.872-42.176 29.792-69.44 29.792z" />
<glyph unicode="&#xe605;" d="M512 864c-229.76 0-416-186.24-416-416s186.24-416 416-416 416 186.24 416 416-186.24 416-416 416zM568.224 238.848h-79.008v297.76c-28.832-26.912-62.848-46.816-102.016-59.744v71.488c20.608 6.752 43.008 19.584 67.168 38.464 24.192 18.88 40.736 40.896 49.76 66.048h64.096v-414.016z" />
<glyph unicode="&#xe606;" d="M512 864c-229.76 0-416-186.24-416-416s186.24-416 416-416 416 186.24 416 416-186.24 416-416 416zM650.944 306.368v-73.504h-276.992c2.976 27.744 11.968 54.016 26.976 78.88 14.976 24.832 44.576 57.824 88.768 98.88 35.552 33.184 57.376 55.68 65.44 67.488 10.88 16.32 16.32 32.448 16.32 48.384 0 17.632-4.704 31.2-14.112 40.672s-22.4 14.208-39.008 14.208c-16.384 0-29.44-4.992-39.136-14.944s-15.296-26.464-16.736-49.568l-79.008 7.904c4.672 43.488 19.36 74.72 44.096 93.696 24.704 18.944 55.648 28.416 92.736 28.416 40.64 0 72.576-10.976 95.808-32.896 23.232-21.952 34.848-49.216 34.848-81.824 0-18.56-3.328-36.224-9.984-52.992s-17.184-34.368-31.616-52.704c-9.568-12.16-26.848-29.728-51.872-52.608-24.992-22.848-40.832-38.016-47.488-45.504-6.656-7.52-12.032-14.816-16.16-21.952h157.12z" />
<glyph unicode="&#xe607;" d="M512 864c-229.76 0-416-186.24-416-416s186.24-416 416-416 416 186.24 416 416-186.24 416-416 416zM607.84 276.576c-26.432-25.504-59.328-38.208-98.752-38.208-37.312 0-68.256 10.72-92.8 32.16-24.608 21.44-38.848 49.44-42.784 84.064l76.512 9.248c2.432-19.424 8.992-34.272 19.712-44.576 10.656-10.272 23.616-15.424 38.816-15.424 16.32 0 30.048 6.208 41.248 18.624 11.136 12.384 16.704 29.088 16.704 50.112 0 19.872-5.344 35.68-16.032 47.328-10.72 11.648-23.744 17.44-39.136 17.44-10.144 0-22.24-1.984-36.352-5.888l8.704 63.904c21.376-0.576 37.696 4.064 48.928 13.888s16.832 22.88 16.832 39.168c0 13.856-4.096 24.864-12.32 33.12-8.256 8.224-19.168 12.352-32.8 12.352-13.472 0-24.928-4.672-34.464-14.016-9.536-9.376-15.328-23.040-17.408-40.992l-72.992 12.352c5.056 25.024 12.704 45.024 22.944 60s24.48 26.72 42.752 35.296 38.784 12.832 61.472 12.832c38.816 0 69.952-12.384 93.376-37.152 19.328-20.256 28.96-43.136 28.96-68.64 0-36.192-19.808-65.088-59.456-86.656 23.648-5.056 42.56-16.416 56.704-34.016 14.176-17.632 21.248-38.88 21.248-63.808 0.032-36.224-13.184-67.040-39.616-92.512z" />
<glyph unicode="&#xe608;" d="M523.488 397.344v140.96l-95.072-140.96h95.072zM512 864c-229.76 0-416-186.24-416-416s186.24-416 416-416 416 186.24 416 416-186.24 416-416 416zM651.008 328.352h-51.008v-83.040h-76.512v83.040h-168.992v68.704l179.136 262.272h66.368v-261.984h51.008v-68.992z" />
<glyph unicode="&#xe609;" d="M512 864c-229.76 0-416-186.24-416-416s186.24-416 416-416 416 186.24 416 416-186.24 416-416 416zM625.472 298.24c-26.848-36.384-64.096-54.56-111.744-54.56-38.080 0-69.12 10.208-93.152 30.688-24 20.512-38.368 48.064-43.072 82.624l79.008 8.192c2.24-17.888 8.896-32 19.936-42.368 11.040-10.432 23.744-15.616 38.144-15.616 16.48 0 30.368 6.688 41.824 20.064 11.36 13.376 17.088 33.568 17.088 60.576 0 25.28-5.696 44.256-17.024 56.896-11.36 12.64-26.176 18.976-44.416 18.976-22.72 0-43.136-9.984-61.152-30.016l-63.904 9.248 40.512 214.752h208.992v-73.984h-149.056l-12.704-70.144c17.696 8.736 35.744 13.152 54.176 13.152 35.168 0 64.96-12.768 89.44-38.272 24.448-25.504 36.672-58.624 36.672-99.296-0.032-33.984-9.888-64.288-29.568-90.912z" />
<glyph unicode="&#xe60a;" d="M294.176 318.816c-40 0-45.312 18.688-45.312 18.688l-156-306.56 125.088 14.016 69.184-104c0 0 144 300.576 144 298.56-74.56 1.792-44.96 77.28-136.96 79.296zM645.824 285.92c19.424 32.64 48.128 49.184 86.112 49.696 37.952 0.512 57.184 19.744 57.696 57.728 0.512 37.952 17.056 66.656 49.696 86.048s39.68 45.696 21.12 78.816-18.56 66.272 0 99.392 11.488 59.392-21.12 78.816-49.184 48.096-49.696 86.080c-0.512 37.952-19.744 57.184-57.696 57.696-38.016 0.512-66.688 17.056-86.112 49.696-19.36 32.64-45.696 39.68-78.816 21.12s-66.24-18.56-99.36 0-59.392 11.488-78.816-21.12c-19.424-32.64-48.096-49.184-86.080-49.696-37.952-0.544-57.184-19.776-57.696-57.728-0.512-37.984-17.056-66.656-49.696-86.080s-39.68-45.696-21.12-78.816c18.56-33.12 18.56-66.272 0-99.392s-11.488-59.392 21.12-78.816c32.64-19.424 49.184-48.128 49.696-86.048 0.512-37.984 19.744-57.216 57.696-57.728 37.984-0.512 66.656-17.056 86.080-49.696 19.392-32.64 45.696-39.648 78.816-21.12s66.24 18.528 99.36 0 59.424-11.488 78.816 21.152zM560.576 447.872h-56.992v215.232c-20.832-19.488-45.44-33.888-73.76-43.232v51.744c14.88 4.864 31.072 14.080 48.544 27.68s29.44 29.44 35.936 47.552h46.272v-298.976zM773.12 325.504c-113.984-12-90.816-40.192-116.8-62.176-30.016-32-67.424-25.824-67.424-25.824l176-302.56 43.2 112 123.072-16-158.048 294.56z" />
<glyph unicode="&#xe60b;" d="M183.312 193.597c-20.192 177.952-39.192 345.408-59.24 522.072 128.56 45.544 250.72 91.032 374.72 130.816 23.992 7.704 56.352-3.152 82.776-11.816 111.712-36.616 222.632-75.64 340.76-116.136-20.264-166.24-37.824-324.392-60.576-481.816-3.448-23.776-26.608-51.68-48.4-64.648-93.184-55.536-189.288-106.184-293.552-163.712-108.84 59.912-219.864 121.040-336.488 185.24zM799.208 222.813c-94.544 201.936-184.432 393.936-285.872 610.576-98-218.024-185.664-413.024-279.152-620.984 49.384 0 81.328 0 111.168 0 24.152 49.144 44.792 91.144 65.728 133.744 82.84 0 158.168 0 222.928 0 58.064-44.136 37.792-159.752 165.2-123.336zM520.872 620.893c34.368-73.856 56.152-120.64 83.208-178.784-54.2 0-95.496 0-154.216 0 22.824 57.456 41.552 104.608 71.008 178.784z" />
<glyph unicode="&#xe60c;" d="M115.776-42.707c0 327.312 0 652.080 0 978.696 6.352-3.56 11.496-6.376 16.584-9.304 122.792-70.592 245.608-141.12 368.264-211.944 7.688-4.44 13.432-4.92 21.384-0.328 123.272 71.24 246.736 142.144 370.168 213.104 3.472 1.992 7.056 3.776 12.664 6.768 0-327.096 0-652.080 0-978.52-4.624 2.536-8.496 4.568-12.28 6.752-124.416 71.528-248.864 143-373.104 214.84-7.704 4.456-13.096 3.848-20.336-0.336-123.96-71.544-248.056-142.848-372.144-214.176-2.84-1.624-5.864-2.92-11.2-5.552zM706.32 444.949c-4.936 3.248-7.6 5.208-10.456 6.848-58.888 33.88-117.872 67.6-176.608 101.736-7.112 4.128-12.288 4.040-19.36-0.080-57.736-33.616-115.728-66.792-173.616-100.144-3.352-1.936-6.496-4.232-10.624-6.952 2.848-2.144 4.2-3.392 5.752-4.28 61.16-35.208 122.264-70.512 183.688-105.248 3.712-2.088 10.952-1.184 14.992 1.080 44.168 24.832 88.040 50.192 131.96 75.472 17.504 10.080 34.92 20.312 54.272 31.568zM641.048 634.309c45.856-26.296 89.432-51.272 134.344-77.024 0 52.216 0 102 0 154.336-45.448-26.144-88.776-51.080-134.344-77.312zM247.048 709.557c0-51.752 0-101.096 0-153 44.8 25.792 87.896 50.592 133.152 76.64-45.952 26.36-88.824 50.936-133.152 76.36zM246.688 333.781c0-51.744 0-101.352 0-153.36 45 25.896 88.096 50.704 133.376 76.768-45.456 26.096-88.624 50.888-133.376 76.592zM640.928 258.309c45.8-26.28 89.032-51.088 133.176-76.416 0 51.712 0 101.208 0 153.056-44.848-25.808-87.816-50.536-133.176-76.64z" />
<glyph unicode="&#xe60d;" d="M513.448 923.301c72.536-54.472 106.28-150.296 85.192-236.008-5.448-22.136-13.152-43.968-15.968-66.424-2.44-19.456-2.632-40.368 1.864-59.28 8.712-36.576 35.632-56.64 65.832-54.064 32.296 2.752 50.736 23.008 56.832 62.416 103.44-40.608 189.056-177.68 182.28-291.84-7.76-130.696-112.304-252.672-252.44-288.048 12.232 8.416 19.008 13.032 25.744 17.704 84.968 59 109.472 161.128 52.4 247.544-25.456 38.552-63.072 69.984-98.576 100.704-29.504 25.512-64.864 44.104-96.016 67.888-29.536 22.576-54.28 49.488-53.288 90.864-34.264-23.2-50.16-77.848-31.872-121.656 9.672-23.152 26.736-43.128 39.352-65.168 9.368-16.352 20.472-32.928 24.576-50.832 8.512-37.168-16.504-69.408-52.192-72.112-33.056-2.496-62.656 25.672-63.712 61.288-0.272 9 1.488 18.064 2.856 33.016-51-42.896-83.256-90.808-86.92-154.28-3.84-66.624 32.256-113.288 80.184-153.736-99.168 31.472-167.472 93.848-200.384 194.424-29.216 89.272-10.496 173.128 25.376 255.088 38.040 86.896 101.248 155.336 166.768 221.992 36.408 37.032 73.984 73.464 106 114.128 32.112 40.776 52.552 87.872 36.112 146.392z" />
<glyph unicode="&#xe60e;" d="M132.84 394.509c-78.112-73.040-25.984-201.128 100.8-240.448-85.376-47.488-194.208 17.008-198.464 118.296-2.592 61.736 22.872 111.816 69.944 150.416 14.376 11.792 18.232 21.392 12.208 39.744-10.76 32.76-17.584 66.824-27.168 104.784 173.616-113.928 728.184-104.64 875.472-4.056-0.56-10.248 0.16-18.6-1.632-26.384-22.608-98.488-56.072-192.144-118.232-273.816-34.704-45.584-66.008-92.392-83.44-149.264-7.152-23.296-37.896-45.92-63.064-56.016-113.432-45.528-228.608-44.56-342.080 1.984-32.288 13.24-54.544 36.48-64.424 72.88-6.904 25.456-20.856 49.736-35.192 72.288-40.32 63.392-82.456 125.624-124.728 189.592zM947.208 695.021c5.040-7.16 22.704-21.152 22.16-34.4-0.584-14.064-15.76-35.024-29.208-39.752-56.976-20.032-114.656-41.992-173.936-50.792-184.984-27.472-370.208-26.936-553.576 15.616-27.224 6.32-55.248 14.168-79.288 27.728-18.76 10.568-43.184 30.384-44.24 47.384-0.976 15.632 25.92 32.976 45.36 47.608-5.728-36.712 12.84-56.496 40.008-64.152 59.256-16.712 119-34.512 179.776-42.472 152.736-20 305.584-15.888 456.912 15.232 28.432 5.84 57.536 13.84 82.92 27.296 19.072 10.096 32.68 30.528 53.112 50.704zM403.096 746.229c-21.72 0-43.888 2.6-65-1.016-11.856-2.032-21.952-14.352-32.832-22.024 10.488-7.152 20.264-18.84 31.592-20.624 40.8-6.408 77.928 6.552 111.016 30.112 66.24 47.152 140.472 58.384 218.48 46.424 23.464-3.592 48.168-13.672 67.28-27.656 32.040-23.44 27-61.92-9.168-78.184-46.688-21-95.96-23.192-144.688-7.224-9.816 3.216-17.504 15.168-23.864 24.64-1.192 1.776 8.28 15.352 13.368 15.696 9.24 0.64 20.24-2.496 28.112-7.704 24.432-16.144 73.16-17.624 96.088-0.064 5.488 4.2 12.592 14.456 10.856 18.224-3.76 8.2-12.48 19.568-19.6 19.88-35.432 1.576-71.968 4.88-106.232-1.92-31.12-6.176-60.552-23.128-89.408-37.896-47.512-24.32-96.344-37.888-149.472-24.76-13.896 3.44-29.896 7.936-39.296 17.496-10.64 10.824-21.424 28.576-19.968 42 1.168 10.944 18.784 24.992 31.728 28.832 31.24 9.28 64.184 14.624 91.008-14.232z" />
<glyph unicode="&#xe60f;" d="M948.448 878.141c-4.92-55.312-8.088-104.272-13.824-152.928-19.888-168.576-52.832-334.136-116.968-492.264-69.16-170.496-236.064-268.632-418.536-245.888-174.944 21.808-315.056 160.528-341.144 337.768-26.088 177.264 72 349.728 237.872 418.096 128.736 53.056 262.976 85.512 400.448 104.792 81.424 11.416 163.264 19.808 252.152 30.424zM475.136 321.301c41.040-33.16 81.392-65.752 121.752-98.352 3.408 3.312 6.824 6.632 10.232 9.936-33.168 41.12-66.336 82.224-100.176 124.184 61.224 3.152 121 1.784 177.864 20.496 0.016 3.856 0.032 7.712 0.048 11.568-58.872 5.832-117.752 11.656-179.408 17.768 19.864 22.416 37.92 41.536 54.52 61.856 16.104 19.712 30.696 40.64 45.96 61.024-3.032 2.976-6.072 5.944-9.112 8.904-40.624-33.136-81.248-66.272-124.424-101.488-3.624 61.984-0.664 121.784-19.56 178.32-4.056 0.040-8.12 0.088-12.176 0.128-5.648-58.432-11.304-116.856-17.152-177.336-43.088 31.88-75.936 74.984-124.432 96.32-2.408-2.36-4.816-4.72-7.224-7.088 32.84-40.208 65.68-80.416 99.472-121.792-60.216-8.608-120.52-1.128-176.984-25.208 56.656-21.544 116.464-19.928 178.328-23.8-33.296-44.576-75.936-77.872-97.136-126.408 2.368-2.264 4.728-4.536 7.096-6.816 39.856 32.4 79.712 64.8 122.72 99.752 1.76-32.696 1.688-62.472 5.4-91.776 3.648-28.816 0.696-59.728 16.832-85.712 3.48 0.056 6.952 0.112 10.416 0.168 5.648 57.76 11.296 115.496 17.144 175.352z" />
<glyph unicode="&#xe610;" d="M62.792 148.341c12.256 60.688 24.176 119.704 36.368 180.072 52.92 0 102.488 0 155.576 0-3.88-23.96-7.176-44.288-11.696-72.136 68.976-26.424 139.448-53.768 210.36-79.944 6.944-2.576 16.896 0.96 24.856 3.536 75.888 24.48 151.656 49.376 232.584 75.824 11.16 54.24 22.488 109.392 35.424 172.352-211.824 0-417.536 0-628.664 0 11.232 56.512 20.96 105.44 31.704 159.536 209 0 416.736 0 627.112 0 7.16 33.128 13.288 61.464 20.576 95.208-209.528 0-415.488 0-628.24 0 11 55.696 20.848 105.504 30.92 156.504 261.928 0 520.584 0 785.632 0-46.064-232.168-91.512-461.264-137.64-693.728-95.4-32.12-192.592-58.896-284.832-97.528-94.336-39.512-180.184-38.872-271.768 8.080-67.584 34.648-141.872 56.224-213.136 83.712-3.144 1.216-5.96 3.312-15.136 8.512z" />
<glyph unicode="&#xe611;" d="M154.546 477.861c0 22.29 1.538 38.732-0.298 54.786-4.774 41.71 12.642 78.084 25.53 115.64 2.852 8.3 4.37 17.444 8.88 24.728 13.234 21.4 28.696 41.076 41.294 63.3 12.904 22.774 24.378 48.416 46.58 66.772 24.012 19.85 51.25 34.268 75.906 52.442 28.036 20.668 61.176 29.892 90.472 47.288 20.828 12.368 51.894 12.026 79.31 3.488 9.080-2.82 19.128-10.366 23.664 8.238 2.458 10.088 21.030 8.334 21.932 1.478 2.064-15.656 11.244-12.852 19.768-12.146 29.596 2.47 55.37-8.054 80.656-21.526 8.792-4.686 18.298-9.086 27.98-10.828 14.188-2.558 31.796 2.176 42.728-4.608 37.416-23.21 79.826-42.234 104.402-80.306 12.186-18.874 34.124-32.688 35.546-58.226 22.27-22.86 14.704-51.736 15.538-78.838 0.030-0.954-5.142-3.542-6.73-2.82-9.176 4.17-9.188 4.432-9.208-2.63-0.064-23.044-0.878-46.126 0.342-69.108 0.596-11.184 10.878-26.5 6.542-32.33-8.69-11.676-5.134-22.806-7.114-34.11-0.834-4.774-3.952-9.158-6.018-13.726-6.708-14.838-11.064-31.512-20.794-44-9.446-12.122-4.75-35.206-27.588-36.912 1.744-34.14-32-38.794-49.524-55.31-20.386-19.222-45.932-34.64-75.76-41.892-12.558-3.050-24.71-6.61-37.62-6.736-25.748-0.246-51.506 0.024-77.254-0.254-2.022-0.024-4.012-2.644-6.014-4.066 2.174-1.294 4.292-3.592 6.53-3.726 15.99-0.922 32.18-0.214 47.952-2.478 8.854-1.27 17.040-7.206 25.522-11.042-9.086-0.968-18.15-2.302-27.262-2.852-59.432-3.558-108.522 18.834-149.808 60.322-7.118 7.156-13.202 16.632-23.972 4.782-0.612-0.674-3.686-0.436-3.818-0.040-4.714 14.458-22.932 21.44-21.678 39.074 0.174 2.494 1.128 4.932 1.724 7.394 2.872-1.352 6.824-1.948 8.404-4.204 3.572-5.1 5.482-11.406 9.294-16.26 0.692-0.874 8.504 5.218 10.82 3.98 7.728-4.146 17.074-19.588 21.378-12.742 7.32 11.646-9.238 19.43-17.714 22.544-14.108 5.178-14.358 14.662-18.69 26.198-7.732 20.596-6.402 42.384-13.96 63.236-7.86 21.694 7.416 44.674 11.648 67.25 4.592 24.474 18.338 41.71 34.494 59.242 11.884 12.884 21.824 26.578 36.67 37.382 12.346 8.992 27.032 13.058 38.598 14.472 28.298 3.472 58.114 5.728 85.924-6.618 3.428-1.524 8.036-1.564 10.46-3.948 8.316-8.166 15.902-17.078 23.772-25.706-12.766-11.122-19.692 13.63-32.016 5.21-23.196 15.776-50.152 10.35-73.64 6.562-21.102-3.4-44.702-16.030-58.792-32.004-17.766-20.136-34.204-42.974-38.51-73.166-9.416-66.056 21.264-125.99 72.526-161.178 39.212-26.92 68.416-33.322 120.652-17.722 11.732 3.504 27.15 1.39 36.6 9.556 20.656 17.858 50.282 22.87 66.168 46.788 14.772 22.24 29.414 44.624 42.826 67.694 3.612 6.21 3.374 15.14 3.456 22.836 0.346 32.528 1.97 65.192-0.278 97.56-3.432 49.488-20.030 94.43-53.698 132.202-7.648 8.58-12.378 19.93-20.552 27.834-11.144 10.78-23.86 20.12-36.696 28.914-24.308 16.66-49.714 27.686-80.3 32.738-38.118 6.306-73.858 9.604-111.664-0.7-18.202-4.964-37.43-1.834-56.176-12.422-10.68-6.038-11.466-21.71-27.024-21.496-11.034 0.152-22.016-6.060-33.254-7.236-11.1-1.168-18.274-6.912-18.924-16.506-0.736-10.89-2.172-14.536-14.708-17.458-15.314-3.566-30.312-13.322-42.688-23.696-27.674-23.178-60.334-42.49-65.89-84.294-1.704-12.836-12.738-24.298-18.846-36.714-12.512-25.426-21.42-51.838-21.134-80.728 0.286-28.46 1.052-56.97-0.182-85.376-1.604-36.968 16.482-70.584 16.602-107.092 10.68-3.432 3.722-25.912 23.652-21.098 4.302 1.032 14.858-7.912 16.208-13.726 3.256-14.052 24.024-24.936 8.856-42.584 8.576-12.558 17.308-24.648 20.588-40.33 4.826-23.1 15.074-43.632 34.010-59.194 4.674-3.844 5.966-11.852 10.68-15.584 12.912-10.208 12.976-35.524 37.398-32.084 11.868-12.702 23.74-25.402 35.598-38.122 3.002-3.208 5.464-8.452 9.042-9.366 28.47-7.252 47.876-28.842 71.228-44.094 13.678-8.936 51.314-19.604 76.576-21.462 4.59-0.334 9.028-2.836 13.532-4.336-4.922-1.216-9.802-3.29-14.768-3.504-91.48-3.892-167.828 31.234-234.734 91.008-12.61 11.264-28.156 19.612-39.364 32.012-44.018 48.668-79.834 103.144-106.374 163.172-13.27 30.020-18.6 62.816-27.738 94.282-12.22 42.048-5.432 84.602-7.684 120.856z" />
<glyph unicode="&#xe612;" d="M888.696-22.179c-274.256 0-548.52 0-822.784 0 0 304.008 0 608 0 912 304 0 608 0 912 0 0-274.264 0-548.512 0-822.784-18.872-40.6-48.408-70.552-89.216-89.216zM584.088 259.045c1.408 11.328 3.176 19.392 3.304 27.488 2.248 143.48 4.704 286.944 6.16 430.432 0.52 51.496-5.952 56.632-56.8 54.832-41.424-1.464-46.68-6.376-47.648-50.848-0.872-40.256-0.184-80.544-0.184-117.84-41.224-5.984-79.832-6.776-115.296-17.728-80.92-24.976-125.656-103.384-117.048-195.72 7.72-82.744 51.648-132.832 132.232-142.472 63.824-7.64 128.288-7.448 195.28 11.856zM672.84 591.229c0-107.72 0.776-208.224-0.296-308.704-0.608-57.632-20.56-106.552-72.28-138.336-5.080-3.12-8.56-8.808-12.896-13.424 66.736-54.472 84.184-34.456 126.4 7.296 31.536 31.192 44.744 72.864 46.6 117.024 4.16 98.864 7.6 197.776 10.696 296.68 0.4 12.52-3.016 25.152-4.904 39.464-32.032 0-60.76 0-93.32 0zM770.712 662.117c0 28.296 0.072 52.68-0.024 77.080-0.096 23.88-15.44 31.328-35.712 30.328-23.024-1.144-51.96 10.504-64.336-20.392-26.056-65.024 2.608-102.704 71.184-95.016 7.88 0.888 15.472 4.2 28.888 8zM497.76 412.069c0-6.56 0.992-13.312-0.168-19.672-4.208-23.040-6.064-64.208-14.336-65.592-28.688-4.816-62.168-1.784-89.24 9.384-40.040 16.512-52.88 61.504-41.936 115.232 7.856 38.584 32.36 60.752 74.568 67.488 44.872 7.152 67.824-11.504 69.968-57.608 0.76-16.368 0.12-32.824 0.12-49.224 0.336-0.008 0.68-0.008 1.024-0.008z" />
<glyph unicode="&#xe613;" d="M498.672 905.309c9.696 0 19.384 0 29.080 0 14.344-10.624 30.264-19.664 42.792-32.112 126.432-125.624 252.232-251.872 378.424-377.736 12.704-12.664 24.216-25.704 29.464-43.248 0-8.072 0-16.152 0-24.232-5.856-17.744-18.048-30.792-31-43.696-125.496-125.16-250.824-250.48-375.968-375.976-12.912-12.952-25.96-25.144-43.704-31-8.080 0-16.16 0-24.232 0-16.664 5.072-29.456 15.552-41.32 27.992-16.688 17.496-34.328 34.088-51.432 51.184-109.52 109.472-219.176 218.792-328.24 328.712-12.44 12.536-21.488 28.448-32.112 42.792 0 9.696 0 19.384 0 29.080 6.664 18.384 20.472 31.256 33.856 44.608 84.032 83.832 167.912 167.816 251.872 251.728 3.032 3.040 6.272 5.872 10.072 9.416 33.936-34.016 67.376-67.312 100.336-101.088 2.408-2.464 2.488-8.728 1.528-12.72-7.792-32.4 4.416-63.6 32.832-80.112 6.528-3.8 8.664-7.704 8.64-15.048-0.264-77.92-0.272-155.84 0-233.76 0.024-7.728-2.016-12.040-9.048-16.128-28.048-16.304-40.52-47.784-32.4-79.016 7.528-28.968 34.88-50.984 64.328-51.768 33.864-0.904 61.344 17.928 71.288 48.872 9.592 29.824-1.344 61.96-27.888 79.688-6.080 4.064-8.488 8.12-8.464 15.472 0.272 77.12 0.168 154.232 0.208 231.344 0 2.904 0.584 5.808 1.12 10.76 29.784-29.784 57.832-58.184 86.368-86.096 6.368-6.232 8.496-11.376 6.048-20.664-11.656-44.256 25.688-89.664 70.624-86.904 42.728 2.616 73.168 38.792 67.888 80.664-5.048 40.064-43.312 67.008-84.776 59.088-6.792-1.296-11.024-0.216-15.824 4.648-29.472 29.904-59.192 59.56-89.032 89.104-4.68 4.632-6.24 8.512-4.792 15.664 10.344 50.816-32.088 93.672-83.024 83.856-7.64-1.472-11.712 0.424-16.64 5.408-30.36 30.728-61.016 61.168-91.536 91.744-2.464 2.472-4.64 5.224-7.376 8.336 22.896 22.816 45.328 44.888 67.432 67.28 13.272 13.464 26.224 27.2 44.608 33.864z" />
<glyph unicode="&#xe614;" d="M617.8 218.453c18.528 5.128 29.848 8.392 41.248 11.392 139.328 36.544 210.6 187.456 146.232 316.296-15.888 31.832-27.32 61.16-20.56 96.208 0.376 1.936 0.080 4 0.040 5.992-1.48 73.216-22.216 89.248-86.584 56.2-45.424-23.312-87.592-29.832-137.472-20.024-34.272 6.752-71.832 2.728-106.992-2.624-37.072-5.664-68.6-2.624-103.040 15.688-82.656 43.96-104.544 27.496-103.448-67.208 0.264-22.592-3.368-47.776-13.464-67.56-73.968-145.008-7.28-294.544 151.192-335.416 7.584-1.96 14.8-5.296 26.888-9.712-9.032-26.568-11.8-54.888-44.28-63.72-36.256-9.84-67.040 1.28-91.704 28.92-10.6 11.88-18.48 26.376-29.84 37.344-21.792 21.040-45.96 37.752-85.208 23.576 8.792-11.68 14.848-20.44 21.624-28.6 12.656-15.272 30.768-28.176 37.72-45.616 27.432-68.736 79.288-90.672 148.24-85.264 5.6 0.44 11.416-1.752 16.344-2.576 2.736-4.208 6.832-7.576 6.608-10.624-1.96-26.984 5.328-65.080-9.448-78.344-24.168-21.688-55.448 5.912-80.76 18.736-207.048 104.952-281.24 318.208-257.656 480.656 31.808 219.184 182.28 375.608 392.864 412.192 237.376 41.24 465.184-99.704 535.304-331.192 69.136-228.208-40.728-471.528-257.32-570.016-3.64-1.648-7.128-3.64-10.816-5.184-57.872-24.2-63.512-19.808-65.104 44.16-1.408 57.336 10 116.008-20.608 176.32z" />
<glyph unicode="&#xe615;" d="M752.136 21.685c-44.168 0-82.168 0-126.080 0 0 89.096 0 175.336 0 261.568 0 58.392-2.56 116.928 0.816 175.128 2.76 47.64-19.136 69.528-61.816 61.144-84.536-16.616-167.952-38.984-251.648-59.672-18.208-4.496-35.688-11.952-57.688-19.472 0 143.96 0 281.312 0 423.376 41.576 0 82.648 0 129.856 0 0-87.72 0-175.424 0-265.52 54.312 11.288 101.92 24.488 150.416 30.2 36.224 4.272 74.464 3.504 110.264-3.2 66.32-12.448 104.12-54.68 105.112-121.2 2.368-159.056 0.768-318.16 0.768-482.352zM570.624 702.533c28.192 52.264 53.096 100.136 80.064 146.816 5.008 8.672 18.144 17.208 27.952 17.728 38.176 2.040 76.528 0.832 115.8 0.832-30.648-131.416-85.88-172.648-223.816-165.376zM377.632 150.173c-35.976-37.904-74.296-78.312-118.112-124.496 0 86.344 0 165.272 0 251.44 42.856-46.072 80.648-86.688 118.112-126.944z" />
<glyph unicode="&#xe616;" d="M295.425 778.742h36.594v-40.080h40.026v119.698h-40.026v-39.556h-36.594v39.556h-40.008v-119.698h40.008zM424.642 738.662h40.008v79.979h35.203v39.719h-110.414v-39.719h35.203zM556.532 797.96l27.563-42.536h0.668l27.509 42.536v-59.298h39.863v119.698h-41.724l-25.648-42.121-25.648 42.121h-41.706v-119.698h39.123zM768.312 778.2h-56.264v80.16h-40.008v-119.698h96.271zM197.763 686.137l57.221-641.786 256.862-71.291 257.061 71.255 57.329 641.822h-628.474zM702.096 476.254h-301.223l7.189-80.612h286.882l-21.584-241.726-161.476-44.74-161.259 44.74-11.253 126.435h79.004l5.852-65.584 87.782-23.661 87.764 23.698 9.139 102.088h-272.811l-21.259 238.042h394.28l-7.026-78.679z" />
<glyph unicode="&#xe617;" d="M38.708-37.895c0 318.248 0 636.496 0 955.452 317.7 0 635.638 0 954.75 0 0-318.006 0-636.728 0-955.452-317.694 0-636.102 0-954.75 0zM400.464 676.897c-47.702-127.362-95.282-254.388-143.446-382.976 20.134 0 35.758 0 51.862 0 14.776 39.846 28.92 77.99 43.054 116.106 50.896 0 99.126 0 149.104 0 14.328-39.742 28.472-78.966 42.162-116.938 19.998 0 35.96 0 55.32 0-47.016 130.004-93.21 257.73-138.806 383.808-22.26 0-39.454 0-59.25 0zM685.568 293.309c0 95.672 0 186.99 0 280.474-15.874-0.722-28.776-1.306-41.184-1.876 0-95.388 0-186.596 0-278.598 15.276 0 27.262 0 41.184 0zM686.3 676.151c-14.892 0-27.844 0-42.542 0 0-13.714 0-25.364 0-38.728 15.184 0 28.124 0 42.542 0 0 13.736 0 25.474 0 38.728zM432.366 608.827c18.12-51.83 36.242-103.654 55.656-159.19-41.676 0-80.018 0-122.178 0 19.666 54.456 38.684 107.118 57.702 159.772 2.94-0.188 5.88-0.384 8.82-0.582z" />
<glyph unicode="&#xe618;" d="M33.486-35.911c0 319.388 0 638.77 0 958.16 319.384 0 638.774 0 958.16 0 0-319.388 0-638.77 0-958.16-319.386 0-638.776 0-958.16 0zM665.844 552.595c-18.424 10.132-27.742 16.156-37.756 20.608-52.72 23.452-111.284 5.876-139.544-43.21-31.054-53.934-35.962-111.122-12.26-168.784 30.252-73.586 108.4-94.396 171.928-47.384 4.778 3.53 9.612 6.988 16.864 12.252 6.74-18.89 11.006-40.916 38.652-23.84 0 123.916 0 248.882 0 374.558-7.45 1.426-12.244 3.312-16.888 2.99-5.72-0.388-11.312-2.618-20.996-5.074 0-39.14 0-77.226 0-122.116zM354.074 678.489c-7.578-55.024-5.226-353.388 3.132-382.314 12.26 0.614 25.166 1.264 37.242 1.876 7.79 53.642 5.414 352.826-2.764 380.436-11.652 0.002-23.688 0.002-37.61 0.002zM670.198 434.105c-4.626-21.018-6.838-43.766-14.814-64.272-11.564-29.73-33.396-49.212-68.052-48.56-34.026 0.642-56.268 18.646-67.698 49.278-15.75 42.208-16.096 85.566-0.898 127.834 12.432 34.578 41.424 53.21 74.162 51.668 30.808-1.456 56.77-21.814 66.86-55.952 5.568-18.864 6.932-38.966 10.44-59.996z" />
<glyph unicode="&#xe619;" d="M117.84 90.997c42.592 18.080 85.096 36.128 128.352 54.472 2.968-4.688 5.8-9.176 9.128-14.44-16.136-15.008-32.072-29.848-49.392-45.96 199.032-37.256 394.704-34.048 589.48 24.168-1.288-15.856-7.224-28.080-19.728-34.6-12.976-6.784-27.112-12-41.312-15.696-86.912-22.608-175.272-35.904-265.096-38.328-67-1.8-133.744 2.272-200 12.56-46.696 7.24-93.216 15.632-139.88 23.088-6.536 1.040-9.616 3.12-9.784 9.872-0.192 8.064-1.104 16.096-1.768 24.864zM475.464 438.581c-5.696-4.056-10.056-7.168-15.24-10.84-14.896 16.512-30.096 32.68-44.488 49.52-14.688 17.184-29.496 34.392-42.648 52.736-36.72 51.184-31.976 100.048 14.568 142.648 33.112 30.32 68.016 58.648 101.552 88.504 16.344 14.56 32.456 29.656 46.816 46.128 32.648 37.464 44.832 81.536 38.32 130.8-0.256 1.976-0.288 3.976-0.448 6.152 23.528-13.736 41.592-56.056 37.384-85.848-3.216-22.696-13.584-42.176-25.808-60.976-29.96-46.024-69.36-83.392-109.2-120.496-15.512-14.448-30-30.208-43.432-46.624-20.776-25.392-25.152-54.376-11.84-84.512 9.92-22.456 21.928-44 33.088-65.912 6.872-13.488 13.912-26.888 21.376-41.28zM674.824 753.805c2.792-5.168 5.168-9.568 8.112-15.016-4.688-3.648-9.368-7.264-14.040-10.904-29.824-23.272-59.672-46.496-89.416-69.872-3.96-3.112-7.328-6.992-10.936-10.536-20.72-20.328-25.736-43.808-13.128-70.152 8.584-17.944 17.944-35.512 27.264-53.096 24.544-46.36 21.048-68.016-17.16-103.68-6.896-6.44-14.016-12.624-22.056-19.84-2.216 5.824-4.376 10.632-5.896 15.64-11.064 36.208-25.128 71.048-42.136 105.008-8.72 17.408-13.992 37.464-16.448 56.88-4.528 35.752 11.32 65.264 38.288 87.104 21.896 17.72 45.944 33.248 70.616 46.912 27.68 15.336 57.136 27.48 86.936 41.552zM201.496 374.797c36.568 15.664 72.128 31.12 107.984 45.816 2.6 1.064 7.752-2.768 11.080-5.176 4-2.912 4.672-6.624 1.376-11.28-7.144-10.064-13.712-20.528-21.52-32.384 119.104 0 236.16 0 353.224 0 0.168-0.6 0.352-1.192 0.504-1.792-2.056-0.984-4.064-2.168-6.208-2.92-94.224-32.944-191.224-47.848-290.816-40.608-46.328 3.368-92.288 11.752-138.464 17.504-8.392 1.040-12.624 4.552-13.456 13.032-0.552 5.624-2.28 11.152-3.704 17.808zM263.712 284.101c23.912 22.592 51.392 16.184 78.032 13.216 68.112-7.568 136.2-15.392 204.216-23.792 29.432-3.632 58.64-8.928 87.944-13.488 0.128-0.896 0.256-1.8 0.384-2.696-19-5.672-37.872-11.832-57.032-16.888-94.952-25.128-189.368-26.264-283.144 6.28-9.656 3.352-16.448 7.912-20.24 17.552-2.808 7.136-6.976 13.72-10.16 19.816zM308.944 178.789c41.496 11.384 81.736 7.688 121.744 5.744 60.296-2.928 120.536-7.040 180.784-10.712 2.968-0.184 5.904-0.968 8.824-1.472 0.416-1.344 0.904-2.256 0.944-3.192 0.992-23.888 0.896-23.688-21.832-31.544-82.872-28.68-166.184-27.28-249.76-3.72-5.552 1.56-11.648 4.856-15.184 9.216-9.064 11.128-16.824 23.328-25.52 35.68zM828.592 65.685c-8.856-9.328-16.824-19.76-26.728-27.768-31.512-25.512-69.328-37.256-108.048-45.888-77.128-17.2-155.384-20.048-233.744-13.264-49.016 4.248-97.68 12.568-146.488 19.16-3.6 0.496-7.12 1.584-10.68 2.4 0.032 1.176 0.064 2.352 0.104 3.52 14.576 0 29.168-0.32 43.736 0.064 75.272 1.928 150.608 2.576 225.776 6.48 86.136 4.472 170.168 20.448 249.416 56.392 1.408 0.632 2.904 1.040 4.344 1.56 0.784-0.896 1.544-1.776 2.312-2.656zM706.896 246.197c15.136 16.544 33.208 35.648 50.448 55.464 9.248 10.64 18.192 21.872 25.216 34.040 10.288 17.776 7.776 32.248-6.504 46.976-6.544 6.752-13.912 12.8-21.36 18.592-7.416 5.776-15.376 10.84-23.32 16.384 54.248 17.432 104.016 1.32 111.352-52.432 2.592-19.064-1.448-37.072-13.528-51.448-10.688-12.728-23.368-24.48-37.080-33.84-27.064-18.488-58.24-27.632-85.224-33.736z" />
<glyph unicode="&#xe61a;" d="M89.92-30.187c0 298.672 0 597.328 0 896 298.664 0 597.336 0 896 0 0-298.672 0-597.328 0-896-298.664 0-597.336 0-896 0zM757.448 40.701c33.128 0 59.792-1.504 86.24 0.352 41.232 2.872 68.168 33.728 72.712 73.568 4.816 42.224-17.256 69.28-49.296 86.4-29.056 15.536-54.736 29.12-59.032 63.736 33.592 23.904 84.544-14.752 102.032 37.696-17.936 34.232-50.048 26.704-78.848 26.304-38.512-0.56-71.968-25.568-79.28-56.664-8.776-37.344 2.968-64.832 37.744-88.584 16.92-11.568 32.616-25.672 50.92-34.264 27.344-12.84 22.864-29.592 10.48-51.992-16.784 0-34.432-2.104-51.392 0.424-41.824 6.208-41.696 7.040-42.28-56.976zM631.528 90.829c-23.576 8.832-41.76 17.968-61 21.872-9.52 1.92-29.168-4.464-29.976-9.44-2.136-12.888-1.040-34.296 7.040-39.528 35.264-22.864 73.56-34.296 115.92-14.368 35.52 16.736 53.648 43.224 53.784 81.848 0.2 59.448-0.192 118.888-0.984 178.32-0.072 4.952-5.040 9.832-7.936 15.128-13.424 0-27.024 0-40.4 0-20.912-76.264 17.136-157.256-36.448-233.832z" />
<glyph unicode="&#xe61b;" d="M183.912 733.869c-37.96-105.416-33.48-209.152 11.96-310.424 41-91.36 105.888-161.832 189.272-216.76 135.384-89.168 370.28-129.568 556.144 32.92-8.168-19.816-10.856-31.544-17.152-40.872-94.832-140.456-230.944-199.24-395.616-186.656-220.528 16.832-400.904 177.656-449.208 393.52-27.224 121.672 2 229.728 86.24 322.264 2.392 2.624 6.040 4.232 9.32 5.896 1.256 0.64 3.12 0.112 9.040 0.112zM958.104 454.261c-19.976-59.48-62.408-100.456-116.496-127.056-238.032-117.024-487.184 60.328-509.848 277.76-8.168 78.352 17.24 146.856 78.608 215.224-44.536-191.568 25.472-322.088 184.456-405.944 123.080-64.936 231.76-49.328 363.28 40.016zM937.336 624.493c-44.4-70.864-106.144-94.68-179.056-85.856-95.32 11.544-161.632 64.968-194.664 155.92-22.872 63.008-9.536 120.904 34.032 161.664-28.312-184.696 161.232-322.64 339.688-231.728z" />
<glyph unicode="&#xe61c;" d="M525.96 346.461c91.224 21.952 177.968 42.832 271.768 65.408-32.608 48.352-61.896 91.784-97.456 144.488 57.504 9.152 105.76 18.192 154.408 23.504 10.6 1.168 25.72-8.368 33.504-17.464 35.888-41.984 69.928-85.552 110.84-136.248-48.008-14.408-88.864-26.672-137.248-41.184 39.672-53.872 76.56-103.976 116.328-157.968-14.984-8.84-25.008-16.944-36.48-21.168-87.968-32.24-176.608-62.672-264.192-95.912-39.2-14.88-64.664-7.416-84.448 30.864-26.264 50.848-56.248 99.8-87.792 155.112-55.088-13.856-109.984-28.136-165.112-41.384-57.352-13.784-62.344-11.368-87.76 43.16-55.744 119.576-111.152 239.32-166.264 359.192-6.936 15.096-11.248 31.384-21.056 59.328 76.624 5.104 145.976 12.24 215.32 12.232 14.072 0 31.4-24.968 41.672-41.808 67.704-110.96 133.88-222.856 203.968-340.152zM484.408 336.261c-51.88 89.552-98.704 170.304-145.448 251.080-69.368 119.872-69.352 119.904-205.128 102.696-3.296-0.416-6.288-3.136-13.768-7.040 58.672-121.352 116.848-243.048 177.056-363.72 4.824-9.672 24.76-19.104 35.664-17.192 48.432 8.52 96.128 21.224 151.624 34.176zM641.056 149.653c96.496 32.928 186.64 63.704 281.672 96.128-35.136 47.848-66.608 90.72-98.776 134.512-91.824-24.16-180.024-47.36-275.176-72.384 32.032-54.928 60.608-103.944 92.28-158.256zM758.632 529.029c84.216-122.168 55.872-121.832 177.416-76.912-61.032 107.312-72 112.288-177.416 76.912z" />
<glyph unicode="&#xe61d;" d="M815.136 163.717c0 11.472 0 19.112 0 26.744 0 133.552-0.232 267.112 0.328 400.664 0.056 15.152-4.112 24.336-17.472 32.464-87.496 53.248-174.56 107.208-261.416 161.504-10.36 6.472-17.8 6.28-27.944-0.048-88.224-55.056-176.632-109.8-265.344-164.056-10.512-6.432-13.016-13.984-12.992-25.344 0.296-136.664 0.176-273.32 0.176-409.976 0-6.096 0-12.184 0-21.688-22.104 13.464-40.776 27.728-61.672 36.904-33.552 14.736-42.472 37.584-41.728 73.76 2.552 124.704 1.24 249.488 0.664 374.232-0.072 15.328 4.752 24.12 17.976 32.216 120.44 73.76 240.536 148.080 360.344 222.848 12.168 7.6 20.768 7.848 33.024 0.2 121.144-75.592 242.624-150.64 364.216-225.504 9.808-6.040 14.296-12.472 14.256-24.576-0.456-137.168-0.408-274.352-0.056-411.52 0.024-11.096-3.080-17.952-12.848-23.72-28.872-17.040-57.16-35.080-89.512-55.104zM463.392 627.901c0-54.928 0-108.176 0-161.432 0-112.8 0.192-225.608-0.272-338.408-0.048-12.32 3.168-20.248 14.272-26.064 15.504-8.112 30.352-24.424 45.448-24.384 15.104 0.032 29.88 16.424 45.36 24.592 11.216 5.92 14.088 14.28 14.072 26.384-0.168 156.264 0.088 312.536 0.24 468.808 0.008 9.744 0 19.488 0 32.464 11.72-7.032 20.864-12.4 29.896-17.968 28.176-17.36 56.176-35.016 84.544-52.072 8.496-5.112 11.744-11.272 11.72-21.344-0.304-142.304-0.296-284.6 0-426.896 0.024-10.080-3.32-15.976-11.84-21.176-55.16-33.688-109.92-68.032-165.2-101.512-4.384-2.656-13.112-2.824-17.44-0.2-55.76 33.704-111.232 67.888-166.272 102.76-5.28 3.336-10.128 12.064-10.152 18.304-0.56 143.336-0.528 286.672-0.064 430 0.024 6.112 3.52 14.824 8.264 17.88 36.488 23.552 73.672 46.008 110.688 68.744 1.2 0.712 2.872 0.672 6.736 1.52z" />
<glyph unicode="&#xe61e;" d="M497.944 899.989c-0.456 0.224 0.112 0.136 0.208-0.128 17.992-48.152 56.64-80.88 88.112-119.088 69.056-83.824 111.536-179.88 122.544-288.032 14.672-144.168-29.744-268.432-132.968-370.888-9.856-9.792-20.432-19.072-31.672-27.2-14.144-10.232-20.6-24.072-21.872-40.576-1.472-19.016-1.832-38.128-2.864-57.176-0.296-5.528-0.184-11.456-2.224-16.392-1.552-3.776-6-8.56-9.512-8.856-6.736-0.576-11.264 3.152-11.936 11.504-1.984 24.536-4.536 49.056-7.592 73.488-1.952 15.536-9.936 26.944-22.504 37.488-90.856 76.176-152.544 170.32-172.072 288.992-12.928 78.576-2.296 155.536 20.088 231.072 24.896 84.024 68.168 157.488 130.504 219.336 11.28 11.184 24.76 20.36 34.872 32.432 8.040 9.568 12.512 22.16 18.888 34.024z" />
<glyph unicode="&#xe61f;" d="M712.32 365.941c89.192-35.832 165.872-83.672 231.8-165.576-49.4-11.168-88.688-20.056-138.336-31.272 58.544-46.6 122.632-77.68 162.36-152.744-20.048 10.192-28.944 14.224-37.352 19.088-25.976 15.032-51.72 30.488-77.664 45.568-43.768 25.472-90.064 48.288-106.808 104.96 35.872 33.312 82.472 31.544 130.192 41.192-45.576 35.296-88.432 68.904-141.88 82.672-42.632 10.976-67.776 37.416-84.56 75.808-19.624 44.824-41.872 88.544-60.336 133.824-41.304 101.256-110.776 178.16-200.832 237.808-14.080 9.328-28.848 18.656-44.624 24.192-73.68 25.832-152.16 38.616-219.432 81.88-4.048 2.608-11.072 1.392-16.552 0.688-3.36-0.44-6.416-3.304-16.088-8.68 7.68-15.352 12.904-33.216 23.84-46.328 34.536-41.344 56.864-88.032 71.4-139.584 6.048-21.44 13.288-45.544 27.88-60.984 32.552-34.416 29.752-68.536 15.032-108.928-20.088-55.12-15.544-111.128 5.952-165.536 3.296-8.328 8.968-15.72 16.408-28.456 23.68 41.36 12.264 94.872 57.448 119.728 47.184-77.584 94.136-154.792 142.408-234.168-51.8 39.016-99.672 80.616-135.104 147.328-10.392-37.432-7.184-75.152-50.968-82.064-43.248 9.432-59.536 46.312-71.784 83.968-15.328 47.12-19.296 95.728-5.856 144.696 5.952 21.688 10.296 43.824 13.008 55.568-24.968 62.584-45.232 116.936-68.456 170-10.432 23.832-26.496 45.248-40.544 67.424-9.040 14.264-20.344 27.216-28.32 42.008-12.576 23.312-12.856 47.36 4.656 68.76 16.16 19.744 39.016 24.368 61.48 16.664 30-10.296 58.648-24.6 87.672-37.624 13.496-6.056 26.448-18.712 39.776-18.888 91.888-1.24 159.384-53.416 224.616-107.544 67.464-56 118.368-125.504 152.464-207.328 23.824-57.168 51.528-112.728 77.104-168.12zM274.784 689.973c-14.864 23.336-25.048 39.328-37.168 58.352 52.304 1.832 60.104-9.432 37.168-58.352z" />
<glyph unicode="&#xe620;" d="M958.992 446.341c0-67.976 3.776-136.28-1.936-203.784-2.152-25.432-20.224-58.92-41.36-71.784-115.28-70.168-232.552-137.384-352.176-199.8-24.896-12.992-65.16-9.040-93.752 0.64-37.864 12.832-71.36 38.752-106.392 59.608-5.752 3.432-9.768 9.784-14.592 14.784 5.232 4.384 10.328 8.944 15.72 13.12 49.88 38.544 85.928-1.528 127.048-20.32 14.92-6.824 39.072-7.92 52.88-0.384 107.368 58.584 213.728 119.072 318.952 181.424 13.712 8.128 26.92 30.032 27.216 45.808 2.248 120.504 2.144 241.088 0.088 361.608-0.264 15.2-12.36 36.528-25.352 44.184-109.28 64.392-219.848 126.608-330.736 188.24-8.912 4.96-25.376 4.976-34.288 0.024-111.648-62.104-222.92-124.92-333.112-189.552-11.824-6.928-22.896-26.344-23.104-40.128-1.784-122.336-1.784-244.728 0-367.064 0.2-13.728 11.512-31.816 23.2-39.936 28.128-19.544 58.584-36.44 89.832-50.592 42.584-19.304 74.424 2.264 74.616 49.136 0.512 123.264 0.6 246.544-0.088 369.808-0.144 25.712 4.744 40.656 35.488 40.936 31.896 0.288 37.368-14.776 37.176-41.976-0.864-125.072-0.208-250.168-0.448-375.248-0.176-94.464-67.008-144.872-156.504-111.96-50.432 18.544-98.168 46.904-142.904 77.104-15.928 10.752-26.976 39.824-27.344 60.76-2.384 136.824-3.192 273.76 0.624 410.52 0.672 24.104 19.696 57.16 40.232 69.672 113.704 69.28 228.96 136.48 347.352 197.24 28.304 14.52 76.904 14.064 105.352-0.552 117.568-60.384 232.112-127.016 344.92-196 21.144-12.928 39.28-46.328 41.44-71.744 5.736-67.512 1.952-135.816 1.952-203.792zM630.544 233.677c-41.288 8.56-82.384 8.768-114.176 26.072-30.488 16.592-53.952 49.080-74.8 78.6-6.336 8.968 2.592 42.624 10.936 45.352 22.632 7.392 48.528 10.504 60.832-24.856 6.080-17.472 27.064-39.632 43.552-41.688 45.872-5.736 93.384-5.672 139.256 0.032 14.392 1.792 31.48 27.312 35.832 44.824 2.096 8.456-20.752 30.832-35.272 34.24-45.648 10.728-92.896 14.376-139.168 22.72-76.4 13.784-111.552 47.832-110.92 104.792 0.648 58.496 40.392 105.768 111.864 111.336 56.888 4.432 116.824-3.16 172.128-17.784 24.592-6.496 44.344-41.528 59.832-67.472 6.576-11.024-0.144-44.472-6.512-46.16-23.752-6.28-51.144-12.496-63.928 24.024-17.936 51.224-66.464 45.040-106.408 45.208-33.952 0.144-83.664 5.664-86.52-43.352-2.712-46.528 46.672-35.128 75.36-42.16 42.096-10.32 85.808-13.968 128.056-23.784 42.024-9.76 75.92-31.136 81.208-79.584 6.056-55.432-12.368-100.512-65.536-121.48-37.248-14.672-78.2-19.888-115.616-28.88z" />
<glyph unicode="&#xe621;" d="M33.494-36.917c0 319.722 0 639.436 0 959.158 319.718 0 639.438 0 959.158 0 0-319.722 0-639.434 0-959.158-319.72 0-639.442 0-959.158 0zM246.268 682.217c0-132.086 0-259.826 0-386.524 18.108 0 33.56 0 52.136 0 0 57.284 0 111.712 0 169.45 24.058 0 45.008-0.006 65.962 0 22.462 0.008 44.956-0.782 67.376 0.206 59.988 2.65 101.428 45.962 102.852 106.54 1.434 61.212-37.644 107.198-98.436 109.752-62.186 2.61-124.568 0.576-189.89 0.576zM577.26 381.045c5.154-55.016 28.748-83.614 75.724-93.258 63.536-13.040 120.41 4.94 143.628 45.4 26.988 47.038 9.714 96.22-41.816 113.812-30.42 10.384-62.736 15.294-93.028 25.986-31.55 11.146-39.172 41.61-17.872 61.176 25.794 23.696 87.656 16.516 101.422-15.608 12.528-29.242 30.312-24.852 52.226-20.454-7.892 72.834-80.434 108.37-157.21 78.952-36.49-13.984-56.336-40.862-57.442-79.406-1.124-39.142 25.938-57.446 58.476-68.042 29.468-9.6 60.802-13.998 89.43-25.406 12.372-4.934 27.114-21.316 27.818-33.268 0.728-12.308-11.334-30.574-22.988-37.488-46.75-27.726-96.462-6.77-118.454 47.602-13.084 0.002-26.428 0.002-39.914 0.002zM299.396 644.311c41.266 0 80.862 2.466 120-0.688 39.534-3.19 57.196-25.116 59.066-63.68 2.092-43.292-10.698-65.706-51.858-72.16-40.942-6.418-83.156-4.764-127.208-6.762 0 49.966 0 95.088 0 143.29z" />
<glyph unicode="&#xe622;" d="M535.176 163.317c-142.608 0.504-257.32 14.592-361.672 68.576-46.344 23.976-90.768 57.736-125.6 96.464-47.312 52.584-47.36 122.192-0.136 174.768 34.824 38.76 78.336 76.016 125.56 96.224 224.512 96.064 452.672 96.464 677.032-0.088 48.808-21 93.24-60.64 129.072-101.104 43.288-48.912 43.352-115.456 0.096-164.432-35.752-40.512-81.080-76.512-128.928-101.576-106.056-55.544-223.088-68.776-315.424-68.832zM156.464 259.661c26.456 11.544 55.12 17.712 55.496 25.248 2.768 56.952 38.84 56.216 80.92 56.688 66 0.76 107.408 40.72 115.472 104.712 5.344 42.416-14.52 74.936-56.344 80.832-38.36 5.4-77.92 5.504-116.664 3.16-11.288-0.68-28.664-16.224-31.192-27.624-16.784-75.6-30.272-151.92-47.688-243.016zM621.328 277.045c4.808-4.824 9.616-9.64 14.424-14.456 13.32 9.408 36.536 17.32 38.24 28.496 7.12 46.808 35.336 50.648 74.288 50.432 65.432-0.352 109 35.832 120.32 92.84 10.704 53.952-13.072 89.096-67.96 95.096-32.6 3.56-66.168 4.872-98.536 0.92-13.904-1.688-34.4-17.352-37.296-30.016-16.912-73.88-29.456-148.76-43.48-223.312zM501.384 597.501c-44.624 3.352-46.392 3.704-51.248-20.192-15.648-77.072-29.88-154.432-44.528-231.032 37.976-11.968 56.176-4.504 58.488 33.24 1.616 26.36 10.704 52.16 14.584 78.472 6.24 42.28 36.64 37.032 65.168 33.848 33.416-3.736 29.72-26.28 24.464-50.392-6.832-31.296-11.792-62.976-18.336-98.752 26.76-0.6 51.184-10.424 57.792 22.864 7.168 36.152 13.168 72.616 17.752 109.184 4.016 31.96-10.992 50.896-43.936 53.968-26.168 2.432-52.328 4.8-80.192 7.352-0.008 22.536-0.008 42.088-0.008 61.44zM234.736 377.237c4.768 30.104 8.784 49.936 10.88 69.984 3.432 32.832 15.6 53.608 53.76 47.16 21.992-3.712 45.68-2.112 51.576-31.912 6.136-31.056-12.52-71.312-42.256-79.528-20.552-5.704-43.24-3.696-73.96-5.704zM697.056 386.149c4.632 27.496 8.344 55.344 14.184 82.752 7.712 36.088 37 24.392 59.664 24.088 25.832-0.36 41.448-12.608 41.792-41.304 0.704-58.2-38.032-81.464-115.64-65.536z" />
<glyph unicode="&#xe623;" d="M49.352 453.269c5.024 19.056 10 38.128 15.088 57.168 10.608 39.72 29.544 73.44 67.536 93.36 24.864 13.040 51.848 15.144 79.192 15.4 98.816 0.936 197.632 1.888 296.448 2.824 4.392 0.040 8.792 0 14.192 0 0.648 12.296 1.216 23.328 1.848 35.448-73.288 0-145.472 0-218.752 0 0 10.752-0.496 20.536 0.088 30.264 2.12 35.064 4.040 70.152 7.12 105.136 2.504 28.512 20.36 47.728 45.312 57.16 87.728 33.144 177.096 40.168 267.512 10.504 54.432-17.856 82.048-54.936 82.624-112.408 0.64-63.976 0.504-127.96-0.144-191.936-0.152-13.872-2.568-28.096-6.288-41.504-11.904-42.872-45.952-71.176-91.976-74.832-30.856-2.448-61.968-1.944-92.968-2.248-34.224-0.328-68.464-0.016-102.696-0.088-80.824-0.168-138.432-55.144-141.416-135.848-1.264-34.176-1-68.432-0.944-102.64 0.008-7.488-1.984-10.416-9.792-11.592-32.632-4.936-65.136-9.184-98.184-3.768-37.016 6.080-64.728 25.944-78.936 59.92-12.976 31.048-21.104 64.12-31.392 96.28-1.048 3.272-2.312 6.488-3.472 9.72 0 34.56 0 69.12 0 103.68zM358.664 751.397c-0.080-24.304 15.152-40.24 38.712-40.512 21.584-0.256 37.888 16.056 38.072 38.072 0.184 22.936-15.232 38.52-38.176 38.584-22.2 0.056-38.544-15.248-38.608-36.144zM448.712-38.251c-18.536 6.832-37.12 13.528-55.592 20.536-9.552 3.616-18.912 7.736-28.336 11.68-39.032 16.304-57.376 46.752-57.76 87.92-0.64 67.168-0.36 134.336-0.056 201.504 0.088 20.184 2.144 40.288 11.456 58.768 19.464 38.616 52.32 57.48 94.152 59.064 45.992 1.736 92.112-0.104 138.152 0.84 29.296 0.608 59.16 0.352 87.688 5.944 55.848 10.968 95.52 54.52 101.248 111.264 3.864 38.312 2.168 77.176 3.032 115.8 0.384 16.856-3.504 14.904 15.416 20.576 40.552 12.16 80.688 13.68 119.136-7.024 34.256-18.448 54.752-48.576 66.736-84.52 28.008-84 28.016-168.368-0.448-252.2-20.768-61.144-63.896-90.744-129.296-91.136-104.28-0.616-208.536-1.272-312.8-1.912-2.848-0.016-5.696 0-9.832 0 0-12.2 0-23.832 0-36.96 72.152 0 145.128 0 218.064 0 0-12.544 0.56-23.656-0.104-34.688-2.048-33.808-4.728-67.56-6.848-101.36-1.736-27.752-16.488-46.568-41.592-55.576-24.24-8.704-49.64-14.192-74.528-21.112-8.84-2.456-17.672-4.936-26.512-7.408-37.136 0-74.256 0-111.376 0zM616.928 52.181c23.584 0.112 39.144 16.312 38.912 40.52-0.184 19.52-18.84 37.192-39.2 37.136-20.856-0.072-38.232-17.6-38.448-38.8-0.224-21.984 16.704-38.96 38.736-38.856z" />
<glyph unicode="&#xe624;" d="M568.248 93.877c5.424-25.264 10.832-50.552 17.016-79.384-46.448-19.024-95.184-7.44-142.432-9.36-50.504-2.056-101.168-0.712-151.76-0.392-48.056 0.296-96.104 1.176-144.104 1.808-23.4 72.48 5.776 136.584 2.68 201.136l-0.552-0.96c6.704 23.072 14.352 45.92 19.96 69.264 31.144 129.68 90.688 247.040 157.704 360.84 37.744 64.104 92.896 112.968 150.84 158.536l-0.856-0.648c44.944 18.256 89.896 36.52 139.616 56.72-0.56 12.168-1.36 29.352-2.376 51.296 25.6-1.536 47.344-2.832 69.664-4.176 6.664-16.136 12.24-29.592 17.136-41.392 43.488-11.904 84.92-23.264 128.136-35.096 5.712 6.984 12.264 15.008 21.888 26.8 16.728-12.76 32.384-24.704 49.6-37.84-6.472-9.664-10.392-15.52-14.824-22.136 21.936-17.816 44.808-36.368 69.768-56.616-7.592-11.856-13.24-20.672-20.472-31.952-79.776 50.6-159.624 52.96-240.136 7.192-1.296-1.56-2.68-3.056-4.112-4.504-21.264-14.488-42.52-28.952-65.44-44.552 12.864-22.496 22.904-40.072 34.496-60.352-5.984-9.832-12.312-20.224-21.096-34.648-18.024 15.224-33.2 28.056-48.408 40.92-81.064-69.584-101.016-267.344-40.528-463.272 26.824 20.272 26.824 20.272 79.92 11.672 8.792-17.632 19.16-38.416 30.68-61.528-35.488-14.64-64.032-4.344-92.704 1.96-1.512 3.872-3.040 7.752-1.088 2.768-3.344 4.040-0.784 0.968 1.784-2.104zM149.664 207.677c-6.024-20.856-12.056-41.72-20.12-69.624-26.424 3.168-52.488 6.304-84.608 10.168 3.056 32.032 5.592 58.528 8.64 90.496 36.936-10.696 76.624 14.584 95.536-31.992l0.552 0.952zM109.96 439.269c11.368 29.408 19.256 49.824 29.28 75.736 28.88-11.208 53.816-20.888 81.464-31.624-8.296-25.024-14.624-44.112-23.136-69.824-28.776 8.448-54.52 16.008-87.608 25.712zM350.768 691.029c-18.936-21.528-33.2-37.744-49.624-56.416-21.12 14.496-39.056 26.816-63.696 43.72 17.4 19.424 32.344 36.096 50.496 56.352 21.992-15.288 40.56-28.192 62.824-43.656zM477.616 795.365c-31.968 0.496-43.72 23.984-59.104 50.944 17.632 10.296 33.264 19.432 56.696 33.12 14.064-14.072 27.912-27.928 47.312-47.336-20.272-16.56-33.008-26.968-45.752-37.368l0.848 0.64zM534.136 361.949c29.016-15.32 46.888-24.76 65.712-34.704 0-18.344 0-34.312 0-58.8-25.624 10.68-45.456 18.944-65.712 27.376 0 20.808 0 38.624 0 66.128zM597.48 411.237c-28.032 22.384-44.72 35.696-64.448 51.448 7.016 15.792 13.296 29.936 21.872 49.224 18.672-12.168 33.216-21.664 51.048-33.288-2.272-18.088-4.44-35.384-8.472-67.384zM694.768 707.517c14.416 0 28.84 0 44.896 0 18.032-29.088-5.72-35.904-29.288-51.56-7.712 18.4-13.712 32.728-19.72 47.056 1.432 1.44 2.816 2.944 4.112 4.504zM823.136 709.437c29.208 14.696 45.184 12.512 61.136-8.528-22.088-16.36-37.96-12.464-61.136 8.528z" />
<glyph unicode="&#xe625;" d="M285.336 645.317c-1.464 0.712-2.648 1.328-3.856 1.888-6.408 2.976-11.248 7.616-14.168 14.024-1.232 2.696-3.104 4.168-5.664 5.4-4.272 2.056-8.504 4.264-12.472 6.848-6.896 4.488-11.416 10.768-13.448 18.888-0.472 1.872-1.968 3.736-3.472 5.072-3.712 3.296-7.856 6.12-11.56 9.432-6.064 5.432-9.336 12.28-10.080 20.488-0.2 2.216-1.512 4.76-3.12 6.344-6.392 6.296-11.328 13.232-11.976 22.52-0.040 0.56-0.312 1.176-0.168 1.672 1.744 5.816-1.488 9.792-4.768 13.96-5.832 7.408-7.856 15.84-6.2 25.216 0.32 1.816-0.048 4.12-0.952 5.72-6.432 11.36-7.712 22.72-1.112 34.528 0.736 1.32 0.16 3.704-0.424 5.376-6.272 17.888 4.168 36.464 22.696 39.776 3.952 0.704 8.464-0.624 12.064 0.736 3.576 1.352 6.064 5.312 9.472 7.416 7.544 4.664 16.152 5.72 24.8 5.832 5.064 0.064 9.504 0.6 13.88 3.896 6.4 4.832 14.232 5.296 22.080 4.88 1.576-0.088 3.56 0.152 4.728 1.048 8.464 6.488 17.84 7.792 27.976 5.488 0.224-0.048 0.448-0.080 0.664-0.152 5.976-1.96 11.504-1.76 17.544 0.976 7.144 3.24 14.952 2.12 22.16-0.84 6.416-2.64 12.44-4.496 19.768-2.664 7.744 1.936 15.152-1.424 21.872-5.456 2.488-1.488 4.816-1.872 7.704-1.368 7.976 1.376 15.632 0.216 22.32-4.624 4.2-3.048 7.976-6.672 12.168-9.744 1.792-1.312 4.12-2.536 6.24-2.616 7.72-0.28 14.304-2.96 20.024-8.040 16.512-14.672 28.736-32.432 37.864-52.44 0.928-2.032 1.872-4.056 3.264-7.056 1.192 2.312 2.032 3.792 2.72 5.336 9.232 20.72 21.672 39.136 38.76 54.248 5.64 4.992 12.128 7.616 19.72 7.952 2.232 0.104 4.664 1.36 6.536 2.72 3.928 2.84 7.44 6.264 11.328 9.168 7.144 5.328 15.216 6.408 23.88 5.104 1.936-0.288 4.36 0.080 6.040 1.048 9.408 5.464 19.104 8 29.888 4.584 1.472-0.464 3.512 0.32 5.12 0.968 6.712 2.744 13.368 5.992 20.84 5.168 4.408-0.48 8.832-1.624 13.016-3.128 2.48-0.888 4.6-1.232 7.16-0.712 5.192 1.048 10.432 2.096 15.696 2.528 6.432 0.52 12.32-1.616 17.464-5.432 2.336-1.736 4.608-2.336 7.52-2.112 8.976 0.664 17.248-1.32 24.504-7.048 1.352-1.072 3.504-1.32 5.336-1.536 6.936-0.832 13.96-1.136 20.832-2.328 6.144-1.064 11.464-4.24 15.568-9.032 1.664-1.936 3.416-2.608 5.896-2.384 8.456 0.752 16.192-1.136 22.832-6.672 9.656-8.056 13.224-21.168 8.832-33.224-1.016-2.784-0.976-4.944 0.448-7.632 5.568-10.528 4.384-20.976-1.288-31.080-1.504-2.68-2.224-5.168-1.608-8.32 1.872-9.664-1.112-18.16-7.288-25.512-3.008-3.576-4.384-7.176-4.056-11.984 0.624-9.056-3.368-16.496-9.848-22.56-3.28-3.072-5.144-6.288-5.488-11.040-0.504-7.104-4.12-13.136-9.496-17.856-3.824-3.352-7.968-6.336-11.848-9.616-1.224-1.040-2.68-2.408-2.992-3.848-2.432-11.224-9.616-18.408-19.376-23.528-0.2-0.104-0.384-0.256-0.592-0.336-6.552-2.408-11.408-6.368-14.752-12.872-3.032-5.904-9.096-8.936-15.272-11.224-2.616-0.968-5.24-1.912-8.56-3.12 1.32-1.128 2.072-1.88 2.928-2.48 30.12-21.080 49.744-49.608 59.736-84.808 3.816-13.44 4.984-27.312 5.576-41.256 0.24-5.672 2.96-10.68 7.72-14.088 28.28-20.248 47.264-47.104 56.712-80.52 5.28-18.712 6.352-37.856 3.848-57.168-3.52-27.136-13.864-51.344-30.92-72.76-2.024-2.536-3.312-5.856-4.232-9.024-3-10.304-5.832-20.68-8.416-31.104-1.296-5.216-2.552-10.576-2.76-15.92-1.616-42.528-18.016-78.528-48.080-108.264-16.712-16.528-36.536-28.384-58.808-36.128-3.672-1.272-7.304-3.104-10.448-5.384-21.808-15.832-45.136-28.88-70.016-39.224-2.408-1-4.776-2.648-6.528-4.576-24.376-26.808-54.28-43.888-89.992-49.856-28.888-4.824-57.256-2.056-84.576 9.176-21.584 8.864-40.288 21.824-56.192 38.88-1.256 1.344-3 2.448-4.728 3.104-30.984 11.832-59.616 27.832-85.848 48.12-1.592 1.232-3.392 2.272-5.24 3.088-47.288 20.92-77.648 56.448-91.576 106.128-1.216 4.344-1.84 8.848-2.952 13.224-1.080 4.248-2.096 8.568-3.72 12.624-6.576 16.416-12.216 33.12-16.12 50.368-0.904 3.992-2.672 7.28-5.216 10.44-15.424 19.12-25.784 40.712-30.040 64.904-7.816 44.368 2.248 84.408 30.352 119.736 7.504 9.432 16.448 17.4 25.896 24.848 5.856 4.624 9.12 10.928 9.040 18.448-0.304 31.816 8.264 61 25.944 87.424 11.264 16.832 25.376 30.904 42.336 42.064 0.752 0.496 1.504 1.008 2.208 1.576 0.248 0.184 0.344 0.544 0.792 1.296zM331.504 654.789c-0.096-0.32-0.184-0.632-0.288-0.952 3.512-0.312 7.024-0.88 10.536-0.888 23.76-0.024 46.528 4.992 68.176 14.584 15.056 6.672 25.336 18.112 31.16 33.688 1.896 5.064 1.312 8.72-2.64 12.312-10.456 9.504-20.32 19.72-31.232 28.648-36.464 29.832-76.088 54.904-117.856 76.632-1.376 0.72-2.72 1.504-4.080 2.248 1.528 0.224 2.72-0.12 3.888-0.52 41.76-14.36 81.608-32.832 119.392-55.712 17.16-10.384 33.48-21.952 48.904-34.784 1.144-0.952 3.528-1.68 4.696-1.144 15.728 7.328 26.272 18.872 29.064 36.568 1.304 8.24 0.072 16.224-2.104 24.144-6.368 23.216-17.304 43.904-34.16 61.272-1.4 1.448-3.096 2.608-4.952 4.152-1.032-3.36-1.656-6-2.664-8.496-1.728-4.256-2.592-4.184-5.624-0.84-7.592 8.352-15.344 16.56-23.088 24.776-0.752 0.8-1.904 1.224-3.416 2.16 0-4.040 0.44-7.376-0.168-10.504-0.344-1.8-2.152-3.704-3.816-4.664-0.68-0.392-2.904 1.408-4.128 2.536-5.808 5.336-11.464 10.84-17.304 16.144-1.336 1.2-3.2 1.816-4.528 2.544 0-3.832 0.616-7.448-0.152-10.736-1.072-4.624-2.936-4.944-6.552-1.808-7.376 6.408-15.192 12.16-24.208 16.088-1.768 0.768-3.624 1.312-5.448 1.96 0.32-1.624 1.112-2.408 1.688-3.336 1.184-1.904 2.864-3.792 3.176-5.856 0.296-1.96-0.632-4.288-1.64-6.12-0.216-0.392-3.288 0.256-4.64 1.088-9.864 6.032-20.512 9.992-31.784 12.376-1.12 0.232-2.288 0.272-3.432 0.4 0.664-1.344 1.616-1.936 2.368-2.712 2.040-2.088 4.368-4.040 5.84-6.488 0.872-1.464 0.352-3.76 0.456-5.688-1.704-0.040-3.448-0.288-5.12-0.064-1.424 0.192-2.744 1.056-4.16 1.416-8.544 2.12-17.096 4.208-25.664 6.216-1.152 0.272-2.424 0.032-3.64 0.032 1.176-1.76 2.68-2.472 3.64-3.64 1.464-1.776 3.080-3.728 3.664-5.864 1.048-3.856-1.008-5.6-4.856-4.6-1.424 0.368-2.8 0.912-4.208 1.32-11.264 3.28-22.648 5.52-34.456 3.688-1.232-0.192-2.408-0.712-3.968-1.192 3.552-3.64 6.68-6.856 9.816-10.064-0.2-0.32-0.408-0.632-0.608-0.952-13.408-2.32-26.984-1.424-40.68-1.144 0.208-0.848 0.208-1.216 0.376-1.488 0.408-0.672 0.856-1.328 1.344-1.952 6.080-7.784 9.912-16.672 13.016-25.952 0.832-2.488 0.336-3.712-2.44-3.584-3.952 0.184-7.896 0.368-11.848 0.536-0.928 0.040-1.856 0.008-3.392 0.008 0.912-1.8 1.296-3.16 2.136-4.12 4.072-4.672 8.096-9.408 12.472-13.8 2.936-2.944 6.536-5.224 9.616-8.048 0.92-0.848 1.48-2.576 1.384-3.832-0.056-0.664-1.856-1.544-2.944-1.68-2.56-0.312-5.184-0.44-7.76-0.256-2.64 0.184-5.24 0.824-8.76 1.416 1.456-2.016 2.264-3.504 3.408-4.664 7.224-7.312 14.544-14.536 21.784-21.832 1.104-1.12 1.96-2.48 2.928-3.736-1.704-0.752-3.352-1.896-5.136-2.152-2.432-0.352-4.96-0.040-7.44 0.008-0.96 0.016-1.912 0.104-3.8 0.2 1.232-1.512 1.824-2.44 2.6-3.152 3.248-2.984 6.368-6.144 9.872-8.784 5.776-4.344 11.832-8.32 17.728-12.512 0.768-0.544 1.272-1.456 1.896-2.2-0.744-0.616-1.424-1.648-2.248-1.784-3.32-0.536-6.672-0.832-10.016-1.144-1.136-0.104-2.288-0.016-4.344-0.016 1.712-1.592 2.64-2.56 3.672-3.384 9.624-7.664 20.304-13.536 31.44-18.656 1.736-0.8 3.192-2.2 4.776-3.328-1.816-1.16-3.496-2.824-5.488-3.368-3.064-0.832-6.336-0.904-10.648-1.44 3.064-1.704 5.152-3.272 7.504-4.112 9.68-3.456 19.456-6.648 29.168-10.032 2.016-0.704 3.888-1.824 5.824-2.752-1.88-1.656-3.576-3.616-5.688-4.864-1.92-1.136-4.304-1.504-6.48-2.2 1.656-1.408 3.24-2.288 4.944-2.656 6.512-1.408 13.024-2.912 19.608-3.864 5.92-0.856 11.944-0.936 17.888-1.632 1.368-0.16 3.168-1.168 3.72-2.304 0.36-0.752-0.848-2.776-1.864-3.6-2.496-2.016-5.312-3.688-8.008-5.512zM781.32 727.445c-0.296 0.272-0.592 0.536-0.88 0.816-4 0.288-8.024 0.424-11.992 0.96-1.272 0.168-2.408 1.384-3.6 2.12 0.968 1 1.84 2.12 2.936 2.976 8.808 6.872 17.672 13.68 26.472 20.568 0.856 0.672 1.408 1.752 2.68 3.392-2.128-0.184-3.216-0.4-4.304-0.36-3.144 0.096-6.296 0.168-9.416 0.528-0.976 0.12-1.848 1.12-2.776 1.72 0.608 0.872 1.096 1.872 1.84 2.6 6.352 6.12 12.832 12.096 19.088 18.32 2.568 2.56 4.656 5.608 6.96 8.44-0.2 0.256-0.408 0.52-0.608 0.776-1.056-0.232-2.096-0.56-3.168-0.68-3.136-0.344-6.288-0.928-9.4-0.784-2.064 0.104-5.24 0.776-5.864 2.136-1.256 2.744 1.936 4.016 3.68 5.704 6.328 6.104 12.64 12.216 18.8 18.488 1.304 1.32 1.912 3.32 2.792 4.912-5.408 0-10.224 0.032-15.048-0.008-2.48-0.016-3.224 0.92-2.424 3.36 3.064 9.296 6.856 18.2 12.928 26 0.76 0.984 1.296 2.128 2.264 3.736-14.296-0.496-27.848-1.32-41.24 1.128-0.2 0.44-0.416 0.88-0.624 1.32 3.392 2.888 6.792 5.776 10.176 8.656-0.184 0.376-0.376 0.744-0.56 1.12-1.12 0.336-2.232 0.968-3.344 0.96-6.76-0.008-13.584 0.392-20.248-0.44-6.224-0.784-12.296-2.904-18.424-4.472-4.056-1.040-6.224 0.696-5.040 4.672 0.688 2.304 2.632 4.288 4.232 6.232 0.84 1.016 2.168 1.632 3.272 2.432-1.568 0.712-2.816 0.904-3.976 0.68-5.656-1.096-11.336-2.096-16.912-3.528-4.696-1.208-9.216-3.088-13.888-4.416-1.24-0.352-3.28-0.264-3.984 0.512-0.752 0.816-0.936 3.088-0.32 4.016 1.904 2.864 4.28 5.424 6.552 8.024 0.736 0.832 1.752 1.424 2.632 2.128-1.6 0.488-2.824 0.368-4.008 0.12-11.504-2.424-22.312-6.608-32.312-12.832-3.12-1.944-5.456-1.072-5.568 2.56-0.080 2.392 1.104 4.928 2.136 7.216 0.72 1.616 2.144 2.912 3.24 4.352-2.584-0.128-4.696-0.832-6.72-1.736-8.976-4.024-16.688-9.92-24.072-16.32-2.632-2.28-3.848-1.952-5.4 1.136-1.96 3.904-1.824 7.8 0.168 11.92-1.896-0.552-3.688-1.080-4.928-2.216-6.072-5.544-12.112-11.136-17.936-16.936-2.936-2.928-5.328-3.008-6.936 0.8-0.928 2.192-0.984 4.8-1.184 7.24-0.128 1.488 0.216 3.016 0.432 5.456-1.784-1.232-2.912-1.752-3.712-2.6-7.728-8.232-15.464-16.456-23.048-24.816-2.784-3.064-3.68-3.168-5.28 0.672-1.12 2.664-1.832 5.496-2.976 9.048-2.496-2.312-4.728-4.12-6.664-6.216-17.040-18.48-28.056-40.168-33.56-64.592-5.376-23.832 5.008-44.52 27.136-55.2 2.24-1.080 3.808-0.896 5.816 0.656 10.096 7.832 20.024 15.936 30.576 23.104 38.496 26.112 80.080 46.208 123.528 62.584 5.856 2.208 11.824 4.168 17.736 6.24-1.056-1.464-2.392-2.256-3.768-2.968-38.368-19.88-74.72-42.936-108.928-69.344-14.528-11.216-28.168-23.424-40.888-36.664-3.144-3.264-3.88-6.344-2.304-10.624 4.984-13.568 13.208-24.392 25.816-31.672 11.392-6.584 23.904-10.144 36.592-13.136 12.368-2.92 24.88-4.768 37.632-4.44 3.416 0.096 6.824 0.616 10.224 0.944 0.032 0.32 0.056 0.632 0.088 0.944-2.12 1.2-4.48 2.136-6.288 3.688-1.696 1.456-2.824 3.584-4.184 5.416 2.064 0.872 4.128 1.76 6.2 2.616 0.192 0.080 0.448 0.040 0.672 0.056 11.856 0.712 23.72 1.512 35.112 5.304 1.52 0.504 2.96 1.232 4.856 2.032-3.656 1.496-6.768 2.496-9.592 4.032-1.296 0.704-2.032 2.456-3.024 3.728 1.24 0.664 2.44 1.448 3.744 1.976 1.248 0.496 2.648 0.64 3.912 1.096 10.304 3.72 20.592 7.448 30.856 11.264 1.12 0.416 2.032 1.384 3.040 2.096-1.12 0.656-1.904 0.536-2.648 0.672-3.424 0.632-6.856 1.208-10.216 2.088-0.912 0.24-1.576 1.424-2.36 2.176 0.744 0.752 1.384 1.688 2.264 2.216 1.344 0.816 2.928 1.232 4.28 2.040 9.888 5.888 19.76 11.824 29.616 17.752 1.216 0.72 2.376 1.544 3.568 2.328zM377.336 323.501c0.048-0.28 0.096-0.568 0.152-0.848 8.208 1.384 16.6 2.12 24.6 4.272 20.344 5.504 37.36 16.64 51.864 31.928 20.24 21.344 32.576 46.216 34.944 75.72 0.424 5.288 0.72 10.616 0.528 15.904-0.4 10.944-3.104 21.392-7.144 31.592-5.632 14.224-13.928 26.472-26.344 35.456-31.704 22.928-65.168 22.792-98.864 5.432-28.072-14.464-47.352-37.44-58.512-66.928-10.040-26.544-11.16-53.44-0.512-80.144 12.856-32.248 44.592-53.040 79.288-52.384zM726.712 415.597c-0.096 25.032-7.472 47.928-21.088 68.72-11.968 18.28-27.664 32.704-47.2 42.832-16.784 8.704-34.568 13.064-53.368 11.008-32.992-3.608-54.808-22.016-66.672-52.624-6.152-15.872-7.152-32.424-4.984-49.088 1.136-8.696 2.416-17.704 5.712-25.712 7.32-17.76 16.216-34.52 30.28-48.504 16.216-16.128 34.568-27.472 56.832-32.376 5.392-1.184 10.936-1.688 16.44-2.296 2.672-0.296 5.416-0.312 8.096-0.128 9.56 0.672 18.568 3.384 27.456 6.992 17.808 7.24 30.128 20.208 38.608 36.88 7.008 13.8 10.128 28.72 9.888 44.296zM512.4 338.789c-2.712 0.128-5.424 0.44-8.128 0.328-2.816-0.12-5.632-0.552-8.416-1.016-31.36-5.176-57.712-18.648-75.448-46.072-5.6-8.656-10.624-17.736-12.736-27.944-3.608-17.432-3.664-34.616 2.672-51.744 6.488-17.544 16.84-32.12 31.736-43.048 28.512-20.928 60.296-27.224 94.536-18.048 28.272 7.576 50.656 23.432 64.968 49.608 8.696 15.92 12.224 32.84 11.024 50.944-1.136 17.072-7.912 31.912-17.304 45.736-5.968 8.784-14.168 15.456-22.568 21.824-17.848 13.512-38.592 18.016-60.336 19.432zM783.832 244.645c0.36 9.248-2.744 23.688-7.648 37.76-5.080 14.576-17.112 23.208-32.568 22.968-16.032-0.24-30.32-6.288-43.040-15.544-14.192-10.328-27.352-21.992-37.944-36.12-13.12-17.504-25.256-35.632-31.968-56.768-3.816-11.984-7.032-24.128-6.688-36.84 0.144-5.296 0.352-10.704 1.512-15.84 2.712-11.984 8.504-21.736 20.864-26.36 8.136-3.048 16.36-2.928 24.752-1.992 33.4 3.712 61.528 17.888 83.32 43.456 19.392 22.752 29.048 49.48 29.408 85.28zM236.76 235.565c0.696-5.144 1.264-15.16 3.496-24.776 7.56-32.552 25.632-58.096 53.632-76.272 18.56-12.056 38.968-18.56 61.312-19.408 18.328-0.68 32.704 14.528 35.056 30.136 0.568 3.792 0.88 7.64 0.984 11.48 0.368 13.672-3.128 26.68-7.816 39.296-2.744 7.376-6.792 14.256-10.312 21.336-8.336 16.784-21.312 30.008-34.048 43.28-9.264 9.648-20.336 17.216-32.344 23.272-9.736 4.896-20 7.152-30.92 7.952-14.248 1.056-28.648-7.176-33.792-20.536-3.84-9.992-4.872-20.4-5.248-35.76zM516.384 541.813c0.040-0.384 0.072-0.776 0.104-1.16 8.672 1.4 17.296 3.24 26.016 4.096 13.776 1.352 25.744 7.184 37.728 13.448 8.856 4.624 14.776 11.856 19.4 20.224 1.76 3.2 2.536 7.296 2.608 11 0.208 10.088-4.52 18.184-11.392 25.256-26.056 26.824-57.576 39.624-95.032 36.416-28.28-2.416-52.272-14.392-72.184-34.472-6.944-7-11.208-15.344-10.2-25.584 0.928-9.368 5.952-16.768 12.464-23.016 7.44-7.136 16.736-11.472 26.104-15.536 20.536-8.936 42.216-11.264 64.384-10.672zM511.432 22.717c5.472 0.664 12.944 1.184 20.256 2.528 18.688 3.44 35.432 11.408 50.52 22.88 9.8 7.456 18.12 16.36 25.216 26.376 3.824 5.4 4.76 11.656 1.344 17.264-2.448 4.016-6.072 8.208-10.192 10.128-10.4 4.832-21.080 9.672-32.168 12.288-25.808 6.088-52.152 7.32-78.504 4.2-16.592-1.968-33.112-4.496-48.752-11.16-8.536-3.632-16.6-7.8-23.216-14.272-7.648-7.488-8.408-15.36-2.112-23.256 24.464-30.68 56.616-45.736 97.608-46.976zM260.264 414.749c0 2.936 0.208 5.888-0.040 8.816-0.824 9.672-1.544 19.368-2.832 28.984-0.968 7.168-3.872 13.664-9.064 18.976-2.344 2.4-5.024 3.592-8.24 2.536-2.336-0.768-4.784-1.688-6.696-3.168-6.696-5.168-13.76-10.040-19.656-16.040-25.416-25.856-35.68-57.072-31.008-92.992 3.040-23.368 12.976-43.632 29.096-60.8 5.448-5.8 11.872-5.856 17.072 0.048 6.44 7.32 11.688 15.472 14.968 24.784 4.992 14.192 9.352 28.496 11.944 43.408 2.616 15.072 4.784 30.12 4.456 45.448zM752.24 428.829c-0.792-14.808 1.608-30.032 4.144-45.176 4.256-25.448 8.736-50.912 23.24-73.096 2.288-3.504 5.336-6.632 8.52-9.368 3.304-2.832 6.168-2.544 9.408 0.4 2.496 2.272 4.776 4.824 6.944 7.416 17.808 21.184 26.864 45.656 26.576 73.32-0.232 22.304-6.856 42.776-19.648 61.088-10.328 14.808-23.512 26.512-39.544 34.912-5.288 2.768-10.128 1.056-12.568-4.352-1.168-2.568-2.272-5.192-3.024-7.904-3.32-11.968-4.856-24.144-4.048-37.24zM761.384 515.749c-0.28 3.944-0.328 8.952-1.048 13.856-5.136 35.24-21.912 63.32-51.864 83.016-27.552 18.128-57.624 22.752-89.664 16.048-5.992-1.256-7.384-3.584-4.48-9.112 2.704-5.144 5.944-10.176 9.816-14.488 9.28-10.336 18.744-20.552 28.744-30.184 10.888-10.496 22.408-20.344 33.808-30.304 3.136-2.736 7.104-4.52 10.2-7.28 15.416-13.72 32.792-24.384 51.36-33.16 2.464-1.168 5.392-1.48 8.152-1.832 2.752-0.352 4.264 1.336 4.52 3.936 0.272 2.808 0.28 5.648 0.456 9.504zM249.304 516.517c0-1.808-0.032-3.616 0-5.424 0.128-5.696 2.36-8.072 9.016-6.184 5.928 1.68 11.864 4.024 17.152 7.168 14.656 8.712 28.976 17.888 42.416 28.536 22.104 17.504 43.624 35.616 62.496 56.584 6.416 7.128 13.168 14.336 16.36 23.872 1.44 4.312 0.688 6.304-3.832 7.464-13.4 3.432-27.040 4.36-40.704 2.552-28.704-3.808-53.224-15.92-72.768-37.648-19.688-21.896-29.096-47.76-30.136-76.92z" />
<glyph unicode="&#xe626;" d="M527.72 0.625c-13.938 0-27.874 0-41.812 0-10.006 3.61-20.198 6.784-29.992 10.898-83.266 34.992-166.488 70.090-249.666 105.29-46.92 19.856-93.822 39.762-140.544 60.072-14.858 6.46-29.382 13.916-39.714 27.218 0 38.096 0 76.188 0 114.282 10.198 6.934 20.396 13.868 31 21.078-10.584 8.030-20.792 15.778-31 23.522 0 38.094 0 76.188 0 114.282 12.098 8.638 24.196 17.278 35.85 25.596-11.876 9.064-23.864 18.216-35.85 27.366 0 38.094 0 76.188 0 114.282 10.928 6.814 21.294 14.852 32.91 20.162 18.938 8.66 38.598 15.786 58.118 23.124 132.238 49.724 261.542 107.262 396.764 149.042 11.15 0 22.298 0 33.45 0 20.728-6.73 41.832-12.492 62.126-20.348 119.086-46.092 237.992-92.656 356.926-139.148 6.468-2.528 12.734-5.646 18.896-8.866 9.85-5.144 14.824-12.734 14.54-24.618-0.636-26.458-1.092-52.986 0.182-79.398 0.806-16.662-5.842-27.424-19.236-35.516-6.958-4.204-13.794-8.61-22.13-13.828 10.176-4.948 18.548-8.776 26.69-13.044 9.83-5.156 14.774-12.774 14.502-24.66-0.634-27.852-0.688-55.742 0.072-83.584 0.326-12.12-4.33-20.522-13.534-27.216-6.238-4.538-12.632-8.866-20.7-14.502 6.976-3.666 12.126-6.472 17.366-9.104 11.362-5.698 17.282-13.85 16.86-27.546-0.85-27.376-0.74-54.81 0-82.192 0.33-12.126-4.030-21.082-13.716-27.028-14.208-8.724-28.482-17.68-43.674-24.398-79.412-35.122-159.134-69.536-238.718-104.256-58.68-25.602-117.312-51.304-175.966-76.962zM313.572 594.739c26.164-0.426 52.024 2.244 76.772 10.826 11.22 3.886 22.422 9.312 31.912 16.36 14.216 10.562 14.154 25.268 0.416 36.324-7.444 5.992-16.238 11.178-25.268 14.182-55.904 18.592-112.062 18.466-168.042 0.042-6.102-2.008-12.006-5.064-17.476-8.474-23.362-14.572-23.616-32.838-0.406-47.204 7.414-4.59 15.68-8.112 23.962-10.918 25.298-8.574 51.5-11.534 78.13-11.138zM382.010 557.263c3.248-2.924 3.82-3.776 4.612-4.106 44.926-18.732 89.918-37.31 134.77-56.224 7.464-3.146 11.968-1.338 16.28 5.102 17.020 25.432 34.384 50.63 51.474 76.012 1.64 2.436 2.258 5.562 4.614 11.618-71.53-10.948-140.42-21.488-211.75-32.402zM419.086 719.999c0.134-0.786 0.268-1.57 0.402-2.354 22.444-2.014 44.856-4.712 67.344-5.784 13.872-0.662 23.526-5.11 29.696-18.186 4.996-10.584 11.966-20.236 19.69-32.988 3.904 8.822 6.314 14.202 8.672 19.602 11.578 26.508 5.912 23.97 35.352 26.644 8.304 0.756 16.604 1.618 24.888 2.568 7.872 0.9 15.72 1.986 23.578 2.992-0.032 0.858-0.064 1.712-0.098 2.57-17.874 7.032-35.744 14.060-54.43 21.412 4.952 13.404 9.162 24.806 14.544 39.374-13.404-4.178-23.828-6.344-33.306-10.61-18.58-8.354-36.092-8.482-54.376 1.214-10.732 5.69-22.742 8.968-34.176 13.334-0.566-0.808-1.132-1.618-1.698-2.426 5.212-10.934 10.426-21.87 16.37-34.336-22.066-8.138-42.258-15.584-62.452-23.026z" />
<glyph unicode="&#xe627;" d="M979.88 637.565c-1.504-3.448-3.504-6.768-4.44-10.36-4.040-15.544-6.16-31.8-11.936-46.64-11.936-30.64-26.16-60.376-38.672-90.808-7.6-18.456-13.408-37.64-20.656-56.248-51.328-131.832-102.832-263.584-154.28-395.36-0.896-2.296-2.016-4.512-4.496-10.048-45.48 72.472-89.584 142.736-133.744 213.104-35.032-14.496-68.992-29.904-103.944-42.6-35.128-12.768-71.232-22.832-109.176-34.808 4.856-3.032 8.512-6.168 12.752-7.84 69.712-27.688 139.504-55.192 209.272-82.744 28.816-11.384 57.624-22.792 85.976-35.84-181.288 39.816-361.976 81.92-545.288 124.528 5.88 8.504 10.216 14.728 14.504 20.984 53.36 77.92 106.584 155.928 160.304 233.6 4.488 6.496 11.52 12.392 18.696 15.664 44.072 20.104 86.984 42.56 130.712 63.344 43.752 20.792 87.248 42.144 131.336 62.192 13.784 6.264 23.088 15.776 31.144 27.8 30.2 45.112 60.568 90.104 91.064 135.016 6.44 9.472 13.672 18.4 20.448 27.448 38.88 8.528 77.344 17.232 115.96 25.176 6.552 1.344 14.592 1.312 20.536-1.304 23.352-10.256 43.984-24.832 60.048-44.872 10.664-13.304 16.808-28.864 19.16-45.944 0.76-5.536 3.104-10.848 4.728-16.264-0.008-9.056-0.008-18.12-0.008-27.176zM610.92 835.637c8.080-1.728 16.104-4.552 24.256-4.976 19.168-1 36.72-6.512 53.352-15.736 23.992-13.288 39.848-42.904 32.216-74.416-6.336-26.152-17.472-50.016-35.032-70.528-8.504-9.944-12.832-24.28-27.904-27.624-25.064-40.232-64.864-63.728-102.656-89.136-38.176-25.672-79.504-45.76-122.328-62.632-61.152-24.088-123.832-40.672-190.328-38.112-20.224 0.776-39.832 4.96-58.128 13.408-40.736 18.824-50.64 59.496-33.464 99.656 29.304 68.512 83.16 114.192 141.904 155.008 58.168 40.424 121.352 71.336 189.528 91.416 32.848 9.672 65.904 18.232 100.488 19.12 5.512 0.144 10.968 2.968 16.456 4.552 3.88 0 7.76 0 11.64 0zM43.88 299.669c2.872 13.744 6.648 27.376 8.4 41.256 2.36 18.728 9.096 34.192 23.872 46.784 14.744 12.552 27.96 26.904 42.008 40.296 3.6 3.44 7.84 6.184 14.664 11.496 9.976-87.568 15.232-172.536 23.472-257.192 0.528-5.424-0.76-11.016-1.36-18.44-47.296 15.32-82.52 41.192-102.464 85.232-3.904 8.616-5.776 18.16-8.592 27.264 0 7.768 0 15.536 0 23.304z" />
<glyph unicode="&#xe628;" d="M76.928 212.485c55.544 41.168 116.616 60.096 182.952 60.44 113.8 0.592 227.608-0.040 341.4 0.56 29.032 0.152 58.056 2.976 87.56 10.048-41.208 32.76-91.552 29.976-138.104 39.032-49.008 9.528-98.688 16.608-148.4 21.2-49.48 4.568-99.36 4.72-157.992 7.168 3.336 26.752 6.088 50.328 9.28 73.848 5.488 40.568 12.832 80.96 16.464 121.688 3.392 38.088 26.12 58.448 59.208 65.736 144.136 31.728 284.016 24.888 418.344-44.696 54.72-28.344 84.664-64.656 77.68-128.88-3.664-33.696-1.504-68.296 0.792-102.296 2.768-41.088 9.080-46.656 49.792-48.048 33.744-1.168 67.56-0.24 106.024-0.24-6.72-42.936-32.12-60.968-63.808-66.992-37.648-7.152-76.592-11.792-114.8-10.776-100.016 2.648-199.92 12.44-299.896 12.848-104.456 0.432-208.928-7.136-313.416-10.448-37.656-1.192-75.384-0.192-113.080-0.192z" />
<glyph unicode="&#xe629;" d="M485.488 919.685c24.968 0 49.936 0 74.904 0 2.208-0.616 4.384-1.456 6.632-1.8 18.304-2.808 36.808-4.616 54.896-8.408 231.704-48.584 402.24-267.688 371.032-521.856-13.96-113.648-62.768-211.336-148.072-287.736-138.664-124.184-299.808-159.392-475.776-100.048-225.072 75.904-352.72 300.080-311.032 534.144 33.744 189.44 188.392 344.104 377.896 377.808 16.456 2.928 33.008 5.28 49.52 7.896zM534.168 544.989c-3.192 2.632-5.784 4.608-8.184 6.776-11.032 9.92-21.672 20.296-33.056 29.768-35.208 29.296-75.008 43.616-121.032 34.16-46.512-9.56-79.888-43.376-85.456-87.336-4.528-35.744 10.864-64.928 33.856-90.784 9.856-11.080 20.496-21.464 30.248-32.632 17.936-20.568 14.528-47.52-7.616-63.52-19.776-14.288-47.72-13.832-69.192 1.112-11.408 7.944-12.456 15.112-6.016 27.392 4.144 7.888 7.936 16.552 9.184 25.264 3.2 22.328-10.976 40.32-31.848 42.384-21.664 2.144-37.056-11.888-38.176-35.984-1.36-29.4 12.792-51.296 36.272-67.064 33.296-22.36 70.296-30.416 109.888-23.56 26.296 4.552 49.024 16.56 66.808 36.968 25.768 29.568 31.072 69.2 9.912 102.12-14.832 23.072-33.912 43.472-51.576 64.656-7.56 9.064-13.6 18.488-14.312 30.48-1.744 29.544 25.904 51.544 57.432 45.984 23.52-4.16 44.032-14.496 61.976-30.032 12.232-10.592 23.936-21.808 36.432-32.080 5.664-4.656 7.096-8.424 5.232-16.040-9.696-39.56-18.504-79.336-27.36-119.104-11.552-51.896-21.848-104.104-34.664-155.688-7.92-31.864-21.808-61.664-44.768-86.168-13.456-14.36-29.24-24.952-49.2-27.808-6.976-0.992-15.176-0.424-16.52 7.472-0.736 4.312 3.696 12.352 7.824 14.176 21.848 9.696 18.592 41.744 3.56 55.488-13.912 12.728-33.544 15.288-51.584 5.744-19.64-10.4-30.168-31.424-26.216-52.36 4.76-25.224 25.096-43.504 54.392-48.624 37.248-6.512 70.992 3.888 102.176 23.112 51.432 31.688 85.328 78.736 111.080 132.064 26.040 53.904 38.488 111.92 49.112 170.376 3.464 19.072 6.968 38.136 10.408 56.92 17.936 0 34.496-1.064 50.872 0.224 30.968 2.44 59.472 11.784 81.616 35.136 10.944 11.536 16.832 25.040 15.064 41.328-1.376 12.688-10.736 25.472-21.592 28.064-13.44 3.216-24.712-1.28-33.48-11.576-8.576-10.080-8.576-18.704-0.92-32.504 1.304-2.352 2.632-4.704 3.816-7.128 3.88-7.92 2.144-14.608-5.208-19.28-26.68-16.936-55.848-16.248-86.336-13.032 1.512 8.68 2.688 15.928 4.048 23.144 7.848 41.712 14.864 83.64 30.352 123.464 7.128 18.344 16.136 35.664 30.464 49.6 15.672 15.248 34.408 22.080 56.24 19.496 13.296-1.576 17.232-9.088 11.312-20.952-1.808-3.616-3.968-7.056-5.712-10.704-10.048-21.032 1.744-43.752 24.664-47.632 27.984-4.736 50.032 16.072 47.608 45.336-2.088 25.184-18.208 39.432-40.328 46.768-49.008 16.272-93.368 3.968-133.16-26.144-43.44-32.872-70.552-78.192-92.152-127.168-5.68-12.864-10.552-26.064-16.184-40.072z" />
<glyph unicode="&#xe62a;" d="M807.176 408.325c50.088 0 99 0 151.704 0-3.224-19.56-5.008-38.056-9.448-55.888-14.52-58.28-41.168-110.512-80-156.568-7.984-9.464-14.936-11.648-27.304-7.48-79.68 26.856-159.664-20.064-176.192-102.672-1.848-9.28-4.216-16.336-15.192-18.416-77.616-14.696-152.624-6.544-225.088 24.848-2.176 0.936-4.032 2.624-7.304 4.816 23.832 41.288 47.008 82.224 71.424 122.408 2.168 3.576 13 4.504 18.744 2.896 59.448-16.648 117.264-13.432 172.512 14.576 64.376 32.632 104.496 85.112 122 155.016 1.352 5.392 2.712 10.776 4.144 16.464zM956.512 478.677c-47.864 0-94.92-0.392-141.944 0.704-3.952 0.096-9.608 9.688-11.216 15.728-22.040 82.816-72.56 139.656-153.68 167.792-45.856 15.912-92.768 16.104-139.096 1.416-12.2-3.864-18.664-3.16-25.376 9.136-21.32 39.032-44.144 77.24-69.088 120.464 33.632 9.448 63.784 19.976 94.808 26.16 44.72 8.912 89.984 7.76 135.104 0.104 12.496-2.112 17.848-7.616 20.256-20.008 15.912-82.104 97.2-128.872 176.528-101.936 8.52 2.888 15.2 6.128 23.056-3.048 50.024-58.488 80.536-125.6 91.232-201.744 0.592-4.152-0.28-8.496-0.584-14.768zM356.368 755.309c25.896-44.856 50.392-87.28 75.808-131.296-55.312-46.984-85.536-107.128-85.664-179.448-0.128-72.304 28.096-133.344 85.896-181.312-25.32-43.888-50.288-87.168-75.952-131.656-67.944 48.784-114.12 111.256-141.4 188.184-4.088 11.52 3.336 15.808 9.8 21.672 52.48 47.64 61.816 123.224 21.944 179.544-5.408 7.648-11.28 15.928-18.92 20.832-16.736 10.752-14.12 22.896-7.976 38.496 28.016 71.048 73.136 128.352 136.464 174.984zM886.912 825.693c-0.008-49-40.192-89.888-88.28-89.816-49.024 0.072-89.864 41.36-89.648 90.64 0.2 47.896 42.056 89.448 89.52 88.88 49-0.584 88.416-40.576 88.408-89.704zM886.92 62.021c0.408-49-39.4-89.856-87.768-90.096-48.56-0.232-89.872 40.176-90.136 88.176-0.272 49.064 38.904 88.904 88.2 89.72 49.144 0.808 89.296-38.488 89.704-87.8zM224.72 442.789c-0.192-49.104-39.832-88.856-88.704-88.968-48.832-0.12-89.232 41.256-88.864 90.992 0.352 47.864 42.416 89 89.952 87.984 49.184-1.048 87.808-40.728 87.616-90.008z" />
<glyph unicode="&#xe62b;" d="M390.576 339.589c-75.568-58.72-144.616-111.568-212.552-165.824-13.896-11.096-23.584-8.24-38.856-3.696-56.768 16.928-71.232 52.168-68.488 110.152 5.464 115.208 2.016 230.864 1.2 346.336-0.128 18.152 7.792 25.512 21.736 35.568 46.88 33.8 83.656 27.272 125.976-12.112 50.952-47.416 109.368-86.792 166.176-130.904 7.096 6.576 13.664 12.272 19.808 18.408 105.816 105.784 211.84 211.36 317.032 317.768 13.44 13.6 24.040 16.704 42.088 9.072 59.848-25.296 120.424-48.912 181.008-72.408 13.352-5.168 18.168-12.272 18.144-26.88-0.472-225.248-0.488-450.504 0.032-675.76 0.032-15.016-5.672-21.4-18.688-26.456-59.816-23.264-119.656-46.504-178.712-71.6-18.632-7.92-29.96-5.784-44.296 8.744-104.536 105.896-210.088 210.808-315.088 316.256-6.248 6.288-10.424 14.608-16.52 23.336zM740.208 611.733c-81.328-63.304-157.728-122.768-236.808-184.312 79.992-62.176 156.392-121.584 236.808-184.104 0 124.696 0 243.384 0 368.416zM161.256 556.317c0-86.56 0-172.008 0-250.272 41.024 40.624 84.312 83.488 125.544 124.312-39.608 39.736-81.784 82.056-125.544 125.96z" />
<glyph unicode="&#xe62c;" d="M289.4 577.605c-1.504 0-3.008 0-4.512 0-74.12 0-148.24 0-222.368 0-5.048 0-5.048 0-5.048 4.96 0 31.392 0 62.784 0 94.168 0 4.376 0.016 4.392 4.352 4.392 143.176 0 286.36 0 429.536 0 1.088 0 2.176 0 4.312 0-90.088-123.472-179.68-246.256-269.76-369.712 2.392-0.16 3.976-0.344 5.552-0.344 67.072-0.016 134.152-0.016 201.224-0.016 1.104 0 2.208-0.104 3.304 0.016 2.64 0.288 3.4-0.888 3.392-3.432-0.064-32.264-0.072-64.536 0.016-96.816 0.008-3-1.32-3.336-3.792-3.328-35.904 0.056-71.816 0.032-107.712 0.032-101.216 0-202.432 0-303.656 0-1.312 0-2.632 0-4.856 0 90.432 123.368 180.48 246.2 270.528 369.040-0.176 0.344-0.344 0.696-0.512 1.040zM1007.016 674.517c-0.040-12.032-2.032-23.248-4.84-34.328-4.6-18.080-11.904-34.944-23.168-49.936-17.008-22.64-39.744-36.232-67.184-42.328-11.416-2.536-22.992-3.512-34.672-3.512-129.608 0.008-259.216 0-388.832 0.008-1.376 0-2.76 0.16-4.408 0.256 2.744 36.696 13.032 69.904 39.288 96.48 16.432 16.64 36.768 26.064 59.544 30.536 10.832 2.128 21.768 2.832 32.784 2.832 128.832-0.024 257.68-0.016 386.512-0.016 1.52 0.008 3.048 0.008 4.976 0.008zM705.92 507.189c33.48 0 66.944 0 100.424 0 4.296 0 4.552-0.024 4.176-4.344-3.184-37.328-14.92-70.904-43.536-96.72-16.472-14.848-36.16-23.368-57.92-26.568-11.808-1.736-23.832-2.592-35.76-2.64-61.224-0.256-122.448-0.12-183.664-0.12-5.528 0-5.544 0-5.176 5.432 1.512 22.328 7.176 43.52 17.768 63.256 17.648 32.88 45.128 52.472 81.744 58.952 9.784 1.736 19.84 2.528 29.792 2.64 30.72 0.32 61.432 0.112 92.152 0.112zM641.608 339.933c11.672 0 23.344-0.032 35.016 0.040 2.136 0.008 3.32-0.36 3.112-2.88-3.576-42.6-17.448-80.064-53.648-106.056-15.384-11.040-32.968-16.784-51.608-19.552-17.84-2.656-35.792-1.728-53.704-1.872-10.68-0.088-21.36-0.016-32.040-0.016-4.696 0-4.608 0-4.336 4.696 1.024 17.488 4.912 34.344 11.552 50.496 16.856 41.072 47.176 65.528 90.992 73.096 15.376 2.648 30.912 2.048 46.416 2.056 2.744 0 5.496-0.008 8.248-0.008z" />
<glyph unicode="&#xe62d;" d="M515.24 219.653c39.448 18.904 39.448 18.904 39.448 64.56 0 50.84-1 101.736 0.44 152.544 0.688 24.072-4.168 39-31.936 36.184-2.512-0.256-5.296 1.856-15.088 5.6 14.968 3.584 23.248 5.568 31.448 7.528 6.752 59.488-30.656 91.28-85.84 72.36-4.584-1.568-9.416-10.48-9.464-16.016-0.656-67.528-0.28-135.064-0.544-202.6-0.056-14.144 6.496-19.936 20.048-20.576 12.136-0.576 24.224-2.344 36.328-3.576-0.136-2.144-0.288-4.264-0.424-6.408-48.8 0-97.6 0-146.384 0-0.288 1.92-0.576 3.832-0.856 5.736 10.768 1.344 21.504 3.512 32.296 3.816 16.336 0.44 24.256 6.264 24.064 24.232-0.744 65.144-0.592 130.312-0.056 195.456 0.128 15.056-4.6 22.44-20.368 21.192-8.696-0.68-17.48-0.104-26.2-0.544-33.048-1.688-45-12.648-50.112-45.576-1.52-9.736-3.072-19.472-4.608-29.2-2.568 0.288-5.152 0.56-7.728 0.848 2.12 28.216 4.256 56.432 6.472 85.808 80.48 0 158.784 0 239.096 0 1.768-19.536 4.904-38.352 4.84-57.152-0.112-22.352 5.92-32.28 31.344-30.784 42.752 2.52 85.768 0.752 128.672 0.632 7.736-0.024 15.456-0.768 24.592-1.248 3.512-29.168 6.856-56.824 10.2-84.464-2.312-0.56-4.608-1.112-6.92-1.656-2.144 8.296-4.576 16.512-6.36 24.888-7.184 33.608-20.528 47.272-54.048 50.136-23.672 2.024-47.72 2.056-71.392 0.32-6.064-0.44-12.264-10.36-16.656-17.080-2.184-3.344-0.424-9.28-0.424-14.048-0.016-24.544 0-49.096 0-76.512 19.128 0 39.128-5.032 54.080 1.504 13.408 5.872 21.28 24.44 30.984 36.624 0-29.528 0-62.656 0-97.608-8.736 15.312-13.184 34.736-24.096 39.56-16.904 7.504-38.216 5.048-60.816 7.096 0-38.232-0.688-72.968 0.8-107.592 0.2-4.904 10.832-12.984 17-13.36 23.736-1.44 47.704-1.528 71.44 0.064 40.112 2.688 56.968 22.392 64.312 72.736-5.16 2.016-10.496 4.096-18 7 3.64 3.832 5.512 7.608 7.528 7.656 31.832 0.92 49.56 20.768 64.704 45.704 13.168 21.688 29.080 41.752 41.84 63.656 3.656 6.28 3.816 18.408 0.096 24.528-18.488 30.56-37.608 60.896-59.080 89.352-7.576 10.032-22.28 14.856-34.080 21.432-4.096 2.264-9.232 2.624-13.248 8.696 35.528 0 71.080 0 106.608 0 0.344-1.384 0.688-2.768 1.032-4.144-7.768-4.232-15.544-8.464-26.8-14.584 17.736-27.344 34.704-53.528 54.296-83.744 16.408 24.544 33.232 45.504 44.44 69.12 3.232 6.808-9.656 21.264-15.72 33.32 26.936 0 57.048 0 87.736 0-0.84-3.344-1.064-5.992-1.592-6.064-61.096-7.344-72.656-64.984-103.456-102.832-2.36-2.88 1.888-13.064 5.312-18.392 22.296-34.752 44.184-69.84 68.56-103.112 7.392-10.128 21.952-15.168 33.656-21.832 4.656-2.656 10.408-3.392 14.704-10.408-35.424 0-70.84 0-106.264 0-0.784 1.296-1.576 2.576-2.376 3.872 8.232 4.904 16.472 9.816 28.032 16.704-21.28 32.28-42.048 63.816-65.424 99.28-19.768-29.576-38.704-56.456-55.56-84.56-2.688-4.472 2.672-15.36 6.768-21.72 2.704-4.216 9.752-5.64 14.872-8.312-0.376-2-0.736-4-1.096-5.984-21.36 0-42.704 0-64.984 0-5.544-31.936-10.544-60.64-15.312-88.064-76.176 0.008-150.472 0.008-224.776 0.008zM24.12 571.997c40.72 0 81.448 0 122.168 0 0.32-1.96 0.64-3.92 0.96-5.88-8.896-1.36-17.76-3.44-26.712-3.92-16.464-0.888-23.472-7.776-23.248-25.352 0.832-65.128 0.944-130.28-0.064-195.4-0.288-18.264 6.88-24.312 23.52-23.592 11.104 0.496 22.264-0.032 33.328 0.8 43.096 3.248 60.624 18.752 69.752 61.096 1.864 8.656 3.592 17.328 5.384 26.016 2.376-0.36 4.752-0.704 7.128-1.048-3.072-32.2-6.136-64.392-9.264-97.248-68.792 0-135.84 0-202.888 0-0.52 1.856-1.040 3.736-1.56 5.592 7.024 2.016 13.992 5.392 21.096 5.736 14.2 0.672 19.528 7.544 19.488 21.128-0.184 66.72-0.272 133.448 0.080 200.176 0.080 15.16-6.776 21.632-21.272 22.296-6.312 0.288-12.568 1.912-18.84 2.936 0.312 2.208 0.632 4.432 0.944 6.664zM214.936 546.389c-12.392-31.672-22.856-58.408-34.024-86.96 24.008 0 44.68 0 68.136 0-11.4 29.056-21.896 55.816-34.112 86.96zM223.36 587.205c6-12.416 9.68-18.992 12.448-25.928 16.432-41.224 32.632-82.536 48.936-123.808 13.672-34.624 13.696-34.608 45.224-50.44-29.72 0-54.536 0-79.352 0-0.304 1.184-0.608 2.392-0.912 3.576 6.464 3.096 12.928 6.184 21.4 10.248-4.672 12.816-8.16 25.832-14.272 37.44-2.504 4.784-10.464 8.624-16.336 9.28-12.552 1.392-25.36 0.472-38.064 0.456-25.624-0.048-38.112-10.112-38.6-35.248-0.152-7.72 8.424-15.608 14.080-25.28-17.448 0-36.568 0-55.688 0 36.616 11.984 36.664 47.784 48.712 75.040 14.392 32.584 26.384 66.232 39.664 99.32 2.752 6.856 6.624 13.248 12.76 25.344z" />
<glyph unicode="&#xe62e;" d="M509.099 335.445c-30.379 0-60.74-0.137-91.102 0.034-31.812 0.188-50.654 18.893-51.251 50.705-0.341 18.108 0.393 36.284-1.075 54.306-0.546 6.639-4.454 14.848-9.574 19.012-41.267 33.519-74.974 72.67-91.409 124.023-31.556 98.645-14.677 187.75 55.637 265.045 110.473 121.481 315.716 110.336 410.624-39.202 65.246-102.775 49.749-236.134-36.642-321.997-8.67-8.619-17.067-17.971-27.153-24.559-11.571-7.543-14.268-17.459-14.097-29.798 0.239-16.742 0.546-33.485-0.034-50.227-0.973-28.535-20.087-47.036-48.759-47.275-31.744-0.256-63.454-0.085-95.164-0.068zM623.019 555.537c42.615-0.171 76.356 32.631 76.919 74.871 0.597 40.875-34.458 76.561-75.588 76.868-41.847 0.341-76.066-33.536-76.305-75.554-0.273-42.906 32.324-75.998 74.974-76.186zM393.847 706.304c-42.957 0.324-76.288-32.444-76.425-75.059-0.119-42.069 32.649-75.366 74.462-75.708 43.401-0.324 76.698 31.846 76.988 74.428 0.29 43.127-32.034 76.032-75.025 76.339zM249.003 45.721c14.797-31.642 16.128-62.020-15.821-84.173-19.405-13.414-40.772-13.568-61.594-1.434-13.636 7.919-23.467 19.712-25.924 34.901-2.236 13.892-0.478 28.45-0.478 44.646-29.559 8.175-56.951 23.074-54.903 62.788 1.297 25.156 18.466 46.251 40.977 52.207 34.372 9.097 56.235-8.38 73.25-37.7 65.451 28.774 130.355 57.259 198.229 87.108-91.938 38.775-181.299 76.476-272.009 114.756-18.193-30.532-43.588-43.213-77.841-28.809-21.811 9.182-34.355 30.839-32.256 56.269 2.799 33.894 24.883 49.442 57.054 54.528-1.126 10.65-2.56 20.361-3.157 30.14-1.434 23.979 10.018 40.96 30.583 51.695 22.34 11.639 44.51 8.567 63.642-6.588 17.715-14.012 24.201-33.553 18.364-55.996-2.372-9.131-5.956-17.937-9.591-28.655 20.361-8.636 40.909-17.51 61.594-26.078 86.562-35.874 173.107-71.782 259.874-107.127 6.263-2.509 15.309-2.85 21.47-0.324 104.789 42.803 209.289 86.204 313.822 129.519 2.867 1.161 5.632 2.679 9.216 4.437-15.479 27.853-20.309 55.808 3.721 80.401 18.261 18.688 42.291 21.931 65.485 11.435 35.977-16.247 37.052-47.65 28.757-81.545 33.485-7.953 57.583-23.791 58.351-60.689 0.478-22.118-15.292-45.585-35.874-53.18-33.86-12.459-57.549 3.311-77.568 30.959-88.849-38.349-177.237-76.51-269.551-116.378 67.959-29.235 132.523-56.986 198.4-85.333 17.732 30.737 42.308 47.684 78.66 35.294 21.146-7.202 37.922-33.041 36.352-55.706-2.406-35.191-25.463-50.978-58.368-57.293 1.109-10.923 2.953-21.077 3.072-31.249 0.324-28.843-17.459-50.244-45.431-55.671-27.255-5.257-53.709 8.841-64.427 34.014-7.066 16.64-4.13 33.126 1.399 49.033 3.26 9.284 2.321 13.449-7.219 17.306-78.899 31.966-157.508 64.529-236.442 96.358-6.366 2.577-15.445 3.362-21.606 0.905-82.227-33.246-164.181-67.226-246.153-101.069-1.655-0.717-3.072-1.877-6.059-3.703z" />
<glyph unicode="&#xe62f;" d="M888.371 395.742c0-64 0-128 0-192-2.27-10.223-5.359-20.309-6.673-30.635-14.404-115.507-91.46-203.895-203.486-233.301-7.475-1.963-14.575-5.342-21.845-8.073-32 0-64 0-96 0-3.157 2.219-6.042 5.769-9.523 6.468-84.787 16.896-147.558 66.15-193.604 136.619-61.116 93.508-120.183 188.399-178.722 283.546-13.773 22.391-25.327 47.326-31.881 72.653-11.674 45.158 24.371 83.558 70.434 75.452 20.343-3.567 40.329-13.431 58.539-23.825 20.309-11.605 38.417-27.068 64.017-45.568 0 20.651-0.017 34.714 0 48.794 0.188 77.278-1.297 154.607 1.212 231.799 1.519 46.985 36.318 78.063 79.531 77.978 43.401-0.085 75.776-31.044 79.189-78.37 2.014-27.853 0.836-55.927 0.956-83.9 0.102-22.903 0.017-45.807 0.017-66.355 30.225 0 53.965 5.103 73.865-1.451 19.866-6.537 35.908-24.764 54.716-38.673 66.031 27.085 97.263 13.636 130.236-56.183 24.474 0 48.64 4.062 70.758-0.922 37.274-8.363 48.657-41.523 58.266-74.052zM440.371 955.733c-1.997-40.789-3.977-81.562-6.042-123.785-21.453-9.318-30.822-3.379-30.891 20.855-0.085 34.304-1.963 68.625-3.072 102.929 13.329 0 26.658 0 40.004 0zM293.956 654.37c-34.338-8.124-66.15-16.026-98.185-23.057-17.391-3.823-17.527-3.14-27.802 25.651 35.43 8.704 70.349 17.937 105.609 25.668 21.419 4.693 24.73-8.021 20.378-28.262zM546.867 654.609c-5.888 23.535 1.809 32.734 23.62 27.648 33.126-7.748 66.133-16.128 100.727-24.61-0.631-18.807-1.075-33.468-26.010-26.88-32.853 8.67-66.031 16.077-98.338 23.842zM330.496 792.883c-8.158-8.926-14.165-15.514-21.538-23.586-32.307 26.249-63.095 51.268-94.327 76.646 7.134 21.436 16.179 28.809 34.509 13.38 25.429-21.402 51.456-42.086 81.357-66.441zM628.429 848.008c-33.911-27.546-64.666-52.531-97.041-78.831-7.339 8.277-13.21 14.882-21.231 23.91 29.116 23.586 57.105 45.875 84.634 68.71 16.555 13.739 22.613 1.331 33.638-13.79z" />
<glyph unicode="&#xe90e;" d="M1088 832h-64v64c0 35.2-28.8 64-64 64h-896c-35.2 0-64-28.8-64-64v-768c0-35.2 28.8-64 64-64h64v-64c0-35.2 28.8-64 64-64h896c35.2 0 64 28.8 64 64v768c0 35.2-28.8 64-64 64zM128 768v-640h-63.886c-0.040 0.034-0.082 0.076-0.114 0.116v767.77c0.034 0.040 0.076 0.082 0.114 0.114h895.77c0.040-0.034 0.082-0.076 0.116-0.116v-63.884h-768c-35.2 0-64-28.8-64-64v0zM1088 0.116c-0.034-0.040-0.076-0.082-0.116-0.116h-895.77c-0.040 0.034-0.082 0.076-0.114 0.116v767.77c0.034 0.040 0.076 0.082 0.114 0.114h895.77c0.040-0.034 0.082-0.076 0.116-0.116v-767.768zM960 608c0-53.020-42.98-96-96-96s-96 42.98-96 96 42.98 96 96 96 96-42.98 96-96zM1024 64h-768v128l224 384 256-320h64l224 192z" horiz-adv-x="1152" />
<glyph unicode="&#xe913;" d="M0 832v-768h1024v768h-1024zM192 128h-128v128h128v-128zM192 384h-128v128h128v-128zM192 640h-128v128h128v-128zM768 128h-512v640h512v-640zM960 128h-128v128h128v-128zM960 384h-128v128h128v-128zM960 640h-128v128h128v-128zM384 640v-384l256 192z" />
<glyph unicode="&#xe969;" d="M262.14 960c-113.728-206.032-132.89-520.304 313.86-509.824v253.824l384-384-384-384v248.372c-534.96-13.942-594.572 472.214-313.86 775.628z" />
<glyph unicode="&#xe9c5;" d="M896 448h-160l-224-224-224 224h-160l-128-256v-64h1024v64l-128 256zM0 64h1024v-64h-1024v64zM576 640v256h-128v-256h-224l288-288 288 288h-224z" />
<glyph unicode="&#xe9c6;" d="M0 64h1024v-64h-1024zM1024 192v-64h-1024v64l128 256h256v-128h256v128h256zM224 640l288 288 288-288h-224v-256h-128v256z" />
<glyph unicode="&#xe9ca;" d="M512 960c-282.77 0-512-229.23-512-512s229.23-512 512-512 512 229.23 512 512-229.23 512-512 512zM512-0.002c-62.958 0-122.872 13.012-177.23 36.452l233.148 262.29c5.206 5.858 8.082 13.422 8.082 21.26v96c0 17.674-14.326 32-32 32-112.99 0-232.204 117.462-233.374 118.626-6 6.002-14.14 9.374-22.626 9.374h-128c-17.672 0-32-14.328-32-32v-192c0-12.122 6.848-23.202 17.69-28.622l110.31-55.156v-187.886c-116.052 80.956-192 215.432-192 367.664 0 68.714 15.49 133.806 43.138 192h116.862c8.488 0 16.626 3.372 22.628 9.372l128 128c6 6.002 9.372 14.14 9.372 22.628v77.412c40.562 12.074 83.518 18.588 128 18.588 70.406 0 137.004-16.26 196.282-45.2-4.144-3.502-8.176-7.164-12.046-11.036-36.266-36.264-56.236-84.478-56.236-135.764s19.97-99.5 56.236-135.764c36.434-36.432 85.218-56.264 135.634-56.26 3.166 0 6.342 0.080 9.518 0.236 13.814-51.802 38.752-186.656-8.404-372.334-0.444-1.744-0.696-3.488-0.842-5.224-81.324-83.080-194.7-134.656-320.142-134.656z" />
<glyph unicode="&#xe9cd;" d="M665.832 632.952l-64.952 64.922-324.81-324.742c-53.814-53.792-53.814-141.048 0-194.844 53.804-53.792 141.060-53.792 194.874 0l389.772 389.708c89.714 89.662 89.714 235.062 0 324.726-89.666 89.704-235.112 89.704-324.782 0l-409.23-409.178c-0.29-0.304-0.612-0.576-0.876-0.846-125.102-125.096-125.102-327.856 0-452.906 125.054-125.056 327.868-125.056 452.988 0 0.274 0.274 0.516 0.568 0.82 0.876l0.032-0.034 279.332 279.292-64.986 64.92-279.33-279.262c-0.296-0.268-0.564-0.57-0.846-0.844-89.074-89.058-233.98-89.058-323.076 0-89.062 89.042-89.062 233.922 0 322.978 0.304 0.304 0.604 0.582 0.888 0.846l-0.046 0.060 409.28 409.166c53.712 53.738 141.144 53.738 194.886 0 53.712-53.734 53.712-141.148 0-194.84l-389.772-389.7c-17.936-17.922-47.054-17.922-64.972 0-17.894 17.886-17.894 47.032 0 64.92l324.806 324.782z" />
<glyph unicode="&#xe9d7;" d="M1024 562.95l-353.78 51.408-158.22 320.582-158.216-320.582-353.784-51.408 256-249.538-60.432-352.352 316.432 166.358 316.432-166.358-60.434 352.352 256.002 249.538zM512 206.502l-223.462-117.48 42.676 248.83-180.786 176.222 249.84 36.304 111.732 226.396 111.736-226.396 249.836-36.304-180.788-176.222 42.678-248.83-223.462 117.48z" />
<glyph unicode="&#xe9d8;" d="M1024 562.95l-353.78 51.408-158.22 320.582-158.216-320.582-353.784-51.408 256-249.538-60.432-352.352 316.432 166.358 316.432-166.358-60.434 352.352 256.002 249.538zM512 206.502l-0.942-0.496 0.942 570.768 111.736-226.396 249.836-36.304-180.788-176.222 42.678-248.83-223.462 117.48z" />
<glyph unicode="&#xe9d9;" d="M1024 562.95l-353.78 51.408-158.22 320.582-158.216-320.582-353.784-51.408 256-249.538-60.432-352.352 316.432 166.358 316.432-166.358-60.434 352.352 256.002 249.538z" />
<glyph unicode="&#xea89;" d="M0.806 90.336c-0.244 2.532-0.452 5.070-0.584 7.63 0.13-2.56 0.34-5.098 0.584-7.63zM235.908 394.852c92.010-2.738 153.734 92.698 137.862 213.198-15.894 120.48-103.396 217.168-195.408 219.922-92.026 2.73-153.74-89.482-137.852-210 15.882-120.468 103.352-220.374 195.398-223.12zM1024 704v85.31c0 93.88-76.782 170.69-170.658 170.69h-682.656c-92.276 0-168.012-74.232-170.564-165.926 58.362 51.386 139.324 94.316 222.874 94.316 89.304 0 357.244 0 357.244 0l-79.948-67.618h-113.268c75.13-28.804 115.156-116.124 115.156-205.722 0-75.248-41.81-139.954-100.888-185.968-57.644-44.902-68.572-63.708-68.572-101.878 0-32.578 61.746-88 94.032-110.788 94.382-66.538 124.916-128.312 124.916-231.456 0-16.428-2.042-32.83-6.066-48.96h307.742c93.874 0 170.656 76.75 170.656 170.69v533.308h-192v-191.998h-64v192h-191.998v64h191.998v192h64v-192h192zM185.886 194.064c21.614 0 41.422 0.59 61.936 0.59-27.146 26.334-48.626 58.6-48.626 98.38 0 23.608 7.564 46.336 18.134 66.52-10.782-0.77-21.79-0.994-33.126-0.994-74.356 0-137.506 24.076-184.204 63.854v-67.242l0.006-201.73c53.44 25.374 116.888 40.622 185.88 40.622zM3.42 72.742c-1.112 5.458-1.966 11.006-2.542 16.634 0.574-5.628 1.43-11.176 2.542-16.634zM455.45 7.154c-15.058 58.806-68.454 87.964-142.888 139.568-27.072 8.732-56.894 13.874-88.894 14.208-89.618 0.964-173.108-34.942-220.216-88.372 15.92-77.706 85.034-136.558 167.234-136.558h286.444c1.816 11.128 2.696 22.632 2.696 34.432 0 12.534-1.534 24.792-4.376 36.722z" />
<glyph unicode="&#xea8d;" d="M853.35 960h-682.702c-94.25 0-170.648-76.42-170.648-170.686v-682.63c0-94.266 76.398-170.684 170.648-170.684h341.352v448h-128v128h128v96c0 88.366 71.634 160 160 160h160v-128h-160c-17.674 0-32-14.328-32-32v-96h176l-32-128h-144v-448h213.35c94.25 0 170.65 76.418 170.65 170.684v682.63c0 94.266-76.4 170.686-170.65 170.686z" />
<glyph unicode="&#xea91;" d="M1024 765.582c-37.676-16.708-78.164-28.002-120.66-33.080 43.372 26 76.686 67.17 92.372 116.23-40.596-24.078-85.556-41.56-133.41-50.98-38.32 40.83-92.922 66.34-153.346 66.34-116.022 0-210.088-94.058-210.088-210.078 0-16.466 1.858-32.5 5.44-47.878-174.6 8.764-329.402 92.4-433.018 219.506-18.084-31.028-28.446-67.116-28.446-105.618 0-72.888 37.088-137.192 93.46-174.866-34.438 1.092-66.832 10.542-95.154 26.278-0.020-0.876-0.020-1.756-0.020-2.642 0-101.788 72.418-186.696 168.522-206-17.626-4.8-36.188-7.372-55.348-7.372-13.538 0-26.698 1.32-39.528 3.772 26.736-83.46 104.32-144.206 196.252-145.896-71.9-56.35-162.486-89.934-260.916-89.934-16.958 0-33.68 0.994-50.116 2.94 92.972-59.61 203.402-94.394 322.042-94.394 386.422 0 597.736 320.124 597.736 597.744 0 9.108-0.206 18.168-0.61 27.18 41.056 29.62 76.672 66.62 104.836 108.748z" />
<glyph unicode="&#xea95;" d="M853.34 960h-682.654c-93.876 0-170.686-76.812-170.686-170.688v-682.628c0-93.934 76.812-170.684 170.688-170.684h682.652c93.876 0 170.66 76.748 170.66 170.684v682.628c0 93.876-76.784 170.688-170.66 170.688zM278.944 128.752c-47.97 0-86.944 38.692-86.944 86.628 0 47.684 38.972 86.812 86.944 86.812 48.158 0 87.060-39.128 87.060-86.812-0.002-47.936-38.904-86.628-87.060-86.628zM497.468 128.004c0 81.81-31.808 158.818-89.46 216.444-57.714 57.75-134.376 89.626-215.904 89.626v125.186c237.652 0 431.126-193.442 431.126-431.254l-125.762-0.002zM719.628 128.004c0 291.062-236.658 527.94-527.376 527.94v125.248c360.002 0 652.946-293.124 652.946-653.192l-125.57 0.004z" />
<glyph unicode="&#xeab6;" d="M128 448.008c0-148.026 88.322-275.968 216.43-336.578l-183.178 488.784c-21.308-46.508-33.252-97.982-33.252-152.206zM771.228 466.872c0 46.234-17.054 78.236-31.654 103.142-19.458 30.82-37.72 56.894-37.72 87.716 0 34.374 26.766 66.376 64.486 66.376 1.704 0 3.32-0.204 4.976-0.302-68.316 60.97-159.34 98.196-259.308 98.196-134.16 0-252.186-67.046-320.844-168.568 9.010-0.282 17.506-0.454 24.712-0.454 40.154 0 102.34 4.752 102.34 4.752 20.69 1.182 23.132-28.434 2.458-30.822 0 0-20.81-2.368-43.952-3.55l139.834-405.106 84.044 245.456-59.822 159.65c-20.688 1.184-40.278 3.55-40.278 3.55-20.702 1.192-18.272 32.002 2.438 30.822 0 0 63.4-4.752 101.134-4.752 40.146 0 102.35 4.752 102.35 4.752 20.702 1.182 23.14-28.434 2.446-30.822 0 0-20.834-2.372-43.948-3.55l138.78-402.018 38.312 124.632c16.58 51.75 29.216 88.9 29.216 120.9zM518.742 415.296l-115.226-326.058c34.416-9.858 70.794-15.238 108.488-15.238 44.716 0 87.604 7.518 127.518 21.2-1.018 1.602-1.974 3.304-2.75 5.154l-118.030 314.942zM848.962 627.428c1.652-11.91 2.588-24.686 2.588-38.458 0-37.93-7.292-80.596-29.202-133.95l-117.286-330.272c114.162 64.828 190.938 185.288 190.938 323.258 0 65.030-17.060 126.16-47.038 179.422zM512 960c-282.77 0-512-229.23-512-512s229.23-512 512-512 512 229.23 512 512-229.23 512-512 512zM512 0c-247.424 0-448 200.576-448 448s200.576 448 448 448 448-200.576 448-448-200.576-448-448-448z" />
<glyph unicode="&#xeabe;" d="M567.656 223.084c-81.944-38.118-158.158-37.716-209.34-34.020-61.052 4.41-110.158 21.124-131.742 35.732-13.3 9.006-31.384 5.522-40.39-7.782-9.004-13.302-5.52-31.386 7.782-40.39 34.698-23.486 96.068-40.954 160.162-45.58 10.866-0.784 22.798-1.278 35.646-1.278 55.782 0 126.626 5.316 202.42 40.57 14.564 6.778 20.878 24.074 14.104 38.64-6.776 14.566-24.076 20.872-38.642 14.108zM890.948 266.184c2.786 252.688 28.762 730.206-454.97 691.612-477.6-38.442-350.964-542.968-358.082-711.95-6.308-89.386-35.978-198.648-77.896-309.846h129.1c13.266 47.122 23.024 93.72 27.232 138.15 7.782-5.428 16.108-10.674 24.994-15.7 14.458-8.518 26.884-19.844 40.040-31.834 30.744-28.018 65.59-59.774 133.712-63.752 4.572-0.262 9.174-0.394 13.676-0.394 68.896 0 116.014 30.154 153.878 54.382 18.14 11.612 33.818 21.64 48.564 26.452 41.91 13.12 78.532 34.296 105.904 61.252 4.276 4.208 8.242 8.538 11.962 12.948 15.246-55.878 36.118-118.758 59.288-181.504h275.65c-66.174 102.224-134.436 202.374-133.052 330.184zM124.11 403.648c0 0.016 0 0.030-0.002 0.046-4.746 82.462 34.71 151.832 88.126 154.936 53.412 3.106 100.56-61.228 105.304-143.692 0-0.014 0.004-0.030 0.004-0.044 0.256-4.446 0.368-8.846 0.37-13.206-16.924-4.256-32.192-10.436-45.872-17.63-0.052 0.612-0.092 1.216-0.152 1.83 0 0.008 0 0.018 0 0.026-4.57 46.81-29.572 82.16-55.852 78.958-26.28-3.204-43.88-43.75-39.312-90.558 0-0.010 0.004-0.018 0.004-0.026 1.992-20.408 7.868-38.636 16.042-52.444-2.034-1.604-7.784-5.812-14.406-10.656-4.97-3.634-11.020-8.058-18.314-13.43-19.882 26.094-33.506 63.58-35.94 105.89zM665.26 199.822c-1.9-43.586-58.908-84.592-111.582-101.044l-0.296-0.096c-21.9-7.102-41.428-19.6-62.104-32.83-34.732-22.224-70.646-45.208-122.522-45.208-3.404 0-6.894 0.104-10.326 0.296-47.516 2.778-69.742 23.032-97.88 48.676-14.842 13.526-30.19 27.514-49.976 39.124l-0.424 0.244c-42.706 24.104-69.212 54.082-70.908 80.194-0.842 12.98 4.938 24.218 17.182 33.4 26.636 19.972 44.478 33.022 56.284 41.658 13.11 9.588 17.068 12.48 20 15.264 2.096 1.986 4.364 4.188 6.804 6.562 24.446 23.774 65.36 63.562 128.15 63.562 38.404 0 80.898-14.8 126.17-43.902 21.324-13.878 39.882-20.286 63.38-28.4 16.156-5.578 34.468-11.902 58.992-22.404l0.396-0.164c22.88-9.404 49.896-26.564 48.66-54.932zM652.646 302.194c-4.4 2.214-8.974 4.32-13.744 6.286-22.106 9.456-39.832 15.874-54.534 20.998 8.116 15.894 13.16 35.72 13.624 57.242 0 0.010 0 0.022 0 0.030 1.126 52.374-25.288 94.896-58.996 94.976-33.71 0.078-61.95-42.314-63.076-94.686 0-0.010 0-0.018 0-0.028-0.038-1.714-0.042-3.416-0.020-5.11-20.762 9.552-41.18 16.49-61.166 20.76-0.092 1.968-0.204 3.932-0.244 5.92 0 0.016 0 0.036 0 0.050-1.938 95.412 56.602 174.39 130.754 176.402 74.15 2.014 135.828-73.7 137.772-169.11 0-0.018 0-0.038 0-0.052 0.874-43.146-10.66-82.866-30.37-113.678z" />
<glyph unicode="&#xeabf;" d="M791.498 415.908c-1.294 129.682 105.758 191.876 110.542 194.966-60.152 88.020-153.85 100.078-187.242 101.472-79.742 8.074-155.596-46.948-196.066-46.948-40.368 0-102.818 45.754-168.952 44.552-86.916-1.292-167.058-50.538-211.812-128.38-90.304-156.698-23.126-388.84 64.89-515.926 43.008-62.204 94.292-132.076 161.626-129.58 64.842 2.588 89.362 41.958 167.756 41.958s100.428-41.958 169.050-40.67c69.774 1.296 113.982 63.398 156.692 125.796 49.39 72.168 69.726 142.038 70.924 145.626-1.548 0.706-136.060 52.236-137.408 207.134zM662.562 796.478c35.738 43.358 59.86 103.512 53.28 163.522-51.478-2.096-113.878-34.29-150.81-77.55-33.142-38.376-62.148-99.626-54.374-158.436 57.466-4.484 116.128 29.204 151.904 72.464z" />
<glyph unicode="&#xeac3;" d="M0.35 448l-0.35 312.074 384 52.144v-364.218zM448 821.518l511.872 74.482v-448h-511.872zM959.998 384l-0.126-448-511.872 72.016v375.984zM384 16.164l-383.688 52.594-0.020 315.242h383.708z" />
</font>
</defs>
</svg>
